<?xml version="1.0" encoding="UTF-8" standalone="no"?>
<svg
   version="1.0"
   width="612.000000pt"
   height="612.000000pt"
   viewBox="0 0 612.000000 612.000000"
   preserveAspectRatio="xMidYMid meet"
   id="svg38"
   sodipodi:docname="колесо.svg"
   inkscape:version="1.2.2 (732a01da63, 2022-12-09)"
   xmlns:inkscape="http://www.inkscape.org/namespaces/inkscape"
   xmlns:sodipodi="http://sodipodi.sourceforge.net/DTD/sodipodi-0.dtd"
   xmlns="http://www.w3.org/2000/svg"
   xmlns:svg="http://www.w3.org/2000/svg">
  <defs
     id="defs42">
    <rect
       x="240.58968"
       y="243.59705"
       width="112.27518"
       height="31.076167"
       id="rect1564" />
    <rect
       x="143.35135"
       y="301.73956"
       width="75.184275"
       height="29.071253"
       id="rect1551" />
    <rect
       x="109.26781"
       y="441.08108"
       width="132.32432"
       height="24.058968"
       id="rect1536" />
    <rect
       x="154.37838"
       y="568.39312"
       width="84.206388"
       height="30.07371"
       id="rect1501" />
    <rect
       x="241.59214"
       y="656.60934"
       width="102.25061"
       height="32.078624"
       id="rect1486" />
    <rect
       x="364.89435"
       y="702.72236"
       width="122.29975"
       height="19.046683"
       id="rect1464" />
    <rect
       x="485.18919"
       y="674.65356"
       width="149.36609"
       height="30.07371"
       id="rect1404" />
    <rect
       x="593.45455"
       y="573.40541"
       width="83.203931"
       height="20.04914"
       id="rect1366" />
    <rect
       x="588.44226"
       y="451.10565"
       width="114.2801"
       height="39.095823"
       id="rect1356" />
    <rect
       x="581.42506"
       y="317.77887"
       width="89.218673"
       height="29.071253"
       id="rect1309" />
    <rect
       x="492.20639"
       y="244.59951"
       width="141.34644"
       height="24.058968"
       id="rect1239" />
    <rect
       x="376.92383"
       y="194.47666"
       width="80.19656"
       height="20.04914"
       id="rect879" />
  </defs>
  <sodipodi:namedview
     id="namedview40"
     pagecolor="#ffffff"
     bordercolor="#000000"
     borderopacity="0.25"
     inkscape:showpageshadow="2"
     inkscape:pageopacity="0.0"
     inkscape:pagecheckerboard="0"
     inkscape:deskcolor="#d1d1d1"
     inkscape:document-units="pt"
     showgrid="false"
     inkscape:zoom="1.1476306"
     inkscape:cx="436.55163"
     inkscape:cy="406.92537"
     inkscape:window-width="1920"
     inkscape:window-height="1001"
     inkscape:window-x="-9"
     inkscape:window-y="-9"
     inkscape:window-maximized="1"
     inkscape:current-layer="g36" />
  <g
     transform="translate(0.000000,612.000000) scale(0.100000,-0.100000)"
     fill="#000000"
     stroke="none"
     id="g36">
    <path
       d="M2807 5540 c-582 -67 -1096 -311 -1502 -715 -379 -376 -625 -863 -712 -1407 -25 -159 -25 -556 0 -715 114 -719 496 -1320 1092 -1718 312 -208 637 -331 1050 -397 110 -17 533 -17 650 0 565 85 1047 324 1435 712 388 388 627 870 712 1435 17 118 17 529 0 650 -105 726 -492 1343 -1097 1750 -300 201 -633 330 -1011 390 -117 19 -501 28 -617 15z m639 -79 c407 -70 751 -217 1084 -464 126 -93 376 -346 474 -477 243 -327 399 -697 463 -1100 28 -177 25 -569 -5 -745 -70 -406 -220 -756 -464 -1084 -96 -128 -347 -378 -478 -475 -317 -235 -657 -382 -1050 -453 -131 -24 -170 -27 -400 -27 -287 -1 -386 10 -619 70 -307 79 -597 220 -860 416 -120 90 -367 335 -452 448 -267 354 -414 698 -486 1135 -28 170 -25 564 5 739 71 408 222 762 464 1084 93 123 287 324 408 421 337 271 722 444 1141 510 179 29 182 29 429 26 171 -2 254 -8 346 -24z"
       id="path2" />
    <g
       id="g1362"
       onclick="signClick(this, 0)">
      <ellipse
         style="fill:#ff00ff;fill-opacity:1;stroke:#000000;stroke-width:9.9975;stroke-linecap:round;stroke-linejoin:round;stroke-opacity:1"
         id="path1314-8-6"
         cx="3849.4351"
         cy="-2056.29"
         transform="matrix(0.99999998,0,0,-0.99999998,872.13758,-7.51845)"
         rx="428.55035"
         ry="413.51352" />
      <path
         id="path26"
         d="m 4572.9932,2355 c -15,-1 -43.9883,-7.9961 -62.9883,-15.9961 -19,-8 -42.9981,-23.0068 -52.9981,-32.0068 -53.9998,-49 -66.0115,-141.0041 -27.0117,-209.0039 27,-49 47.0088,-59.9981 69.0088,-37.9981 13,13 13.0029,19.0031 3.0029,33.0029 -7,9 -19.0117,30.9991 -27.0117,48.9991 -41.9998,90.9998 59.0069,182.9988 152.0069,138.999 55.9998,-27 63.0029,-57.9916 63.0029,-275.9912 V 1815 h 30 30 v 203.9941 204.0088 l 26.001,30.9961 c 64.9998,77.9998 193.9892,28.9959 193.9892,-74.0039 0,-28 -21.9933,-72.001 -42.9931,-86.001 -12,-9 9.997,-48.999 26.997,-48.999 30,0 75.9961,81.0002 75.9961,135 0,146.9998 -178.0002,228.0086 -285,129.0088 l -26.9971,-25.0049 -22.0019,19.9951 c -28,26 -88.0031,51.0059 -123.0029,51.0059 z m 14.1064,-561.4453 c -12.6245,0 -22.5186,-3.6806 -29.6924,-11.0303 -7.1738,-7.3145 -10.7666,-17.2729 -10.7666,-29.8974 0,-12.519 3.5928,-22.4834 10.7666,-29.8682 7.1738,-7.3496 17.0679,-11.0156 29.6924,-11.0156 12.6597,0 22.5772,3.666 29.751,11.0156 7.1738,7.3848 10.7666,17.3492 10.7666,29.8682 0,12.6245 -3.6162,22.5829 -10.8252,29.8974 -7.209,7.3497 -17.1031,11.0303 -29.6924,11.0303 z m 55.9717,-1.6406 v -78.545 h 34.2773 c 5.6969,0 10.3994,0.4949 14.0918,1.4795 3.7276,0.9847 7.1301,2.6449 10.2246,4.9659 2.6726,1.9692 4.7721,4.4523 6.2842,7.4414 1.5473,2.989 2.3145,6.3827 2.3145,10.1806 0,5.2397 -1.5021,9.4562 -4.5264,12.6563 -2.9891,3.2001 -7.0533,5.3083 -12.1875,6.3281 v 0.4248 c 3.6572,1.6176 6.4917,3.8693 8.4961,6.7529 2.0044,2.9188 3.0029,6.2656 3.0029,10.0635 0,3.2704 -0.7349,6.1839 -2.2119,8.7158 -1.4418,2.5671 -3.6613,4.5963 -6.6504,6.1084 -2.8836,1.4418 -5.8058,2.3759 -8.7597,2.7979 -2.9188,0.422 -7.5423,0.6299 -13.8721,0.6299 z m 82.2803,0 v -78.545 h 56.8066 v 15.2051 h -36.6504 v 19.4092 h 34.0137 v 15.1904 h -34.0137 v 13.5498 h 36.6504 v 15.1905 z m 73.7988,0 v -78.545 h 20.2588 v 34.6143 h 29.8974 v -34.6143 h 20.2588 v 78.545 h -20.2588 v -28.7403 h -29.8974 v 28.7403 z m -211.9922,-13.1836 c 2.5319,0 4.9593,-0.4715 7.2803,-1.4209 2.3561,-0.9495 4.4175,-2.475 6.2109,-4.585 1.7583,-2.0396 3.1872,-4.7218 4.2774,-8.0273 1.0901,-3.3056 1.6406,-7.3142 1.6406,-12.0264 0,-4.3957 -0.4714,-8.2286 -1.4209,-11.499 -0.9495,-3.2353 -2.4106,-6.0463 -4.3799,-8.4375 -1.7583,-2.11 -3.8255,-3.6677 -6.1816,-4.6875 -2.3561,-0.9847 -4.8245,-1.4795 -7.4268,-1.4795 -2.6023,0 -5.0853,0.4948 -7.4414,1.4795 -2.3561,0.9846 -4.4087,2.5102 -6.167,4.5849 -1.7583,2.0748 -3.1872,4.7423 -4.2773,8.0127 -1.055,3.3056 -1.5821,7.3054 -1.5821,11.9825 0,4.5715 0.5359,8.5801 1.626,12.0263 1.1253,3.4814 2.5777,6.2046 4.3359,8.1738 1.899,2.11 3.975,3.6121 6.2256,4.5264 2.2858,0.9143 4.7132,1.377 7.2803,1.377 z m 76.0547,-1.2159 h 1.9043 c 3.9737,0 7.0482,-0.032 9.2285,-0.1025 2.2154,-0.035 4.0602,-0.3309 5.5371,-0.8935 1.6528,-0.633 2.7948,-1.5993 3.4277,-2.9004 0.6682,-1.3012 1.0108,-2.61 1.0108,-3.9112 0,-1.6879 -0.287,-3.1813 -0.8496,-4.4824 -0.5627,-1.266 -1.7603,-2.2966 -3.5889,-3.1055 -1.3011,-0.5978 -3.0814,-0.9491 -5.332,-1.0546 -2.2506,-0.1055 -4.9738,-0.1612 -8.1738,-0.1612 h -3.1641 z m 0,-30.1611 h 4.4385 c 3.0242,0 5.923,-0.023 8.7011,-0.059 2.7781,-0.035 4.9508,-0.2752 6.5332,-0.7324 2.321,-0.6681 3.9578,-1.6901 4.9073,-3.0615 0.9846,-1.3363 1.4795,-3.2601 1.4795,-5.7569 0,-1.8989 -0.407,-3.5914 -1.2159,-5.0683 -0.7736,-1.4418 -2.2113,-2.5926 -4.3212,-3.4717 -2.0748,-0.8791 -4.35,-1.3418 -6.8116,-1.377 -2.4616,-0.035 -6.5346,-0.044 -12.2314,-0.044 h -1.4795 z" />
    </g>
    <g
       id="g1497"
       transform="matrix(9.9999998,0,0,-9.9999998,15,6120)"
       onclick="signClick(this,3)">
      <circle
         style="fill:#ff00ff;fill-opacity:1;stroke:#000000;stroke-width:0.99975;stroke-linecap:round;stroke-linejoin:round;stroke-opacity:1"
         id="path1492"
         cx="207.88821"
         cy="480.05527"
         r="40" />
      <path
         id="path599"
         d="m 207.53977,456.35224 c -3.23906,0.0359 -6.38897,0.34912 -9.18897,0.97412 -3.39998,0.8 -7.99931,2.39951 -10.29931,3.49951 -4.00001,2.1 -4.10011,2.2 -2.6001,4.5 l 1.59961,2.29981 6.10107,-2.39942 c 6.2,-2.59998 21.79981,-4.4997 21.79981,-2.6997 0,0.5 -0.7,1.79931 -1.5,2.79931 -0.8,1.1 -1.5,3.49981 -1.5,5.29981 0,13.89996 18.69951,16.80017 22.99951,3.70019 1.3,-3.99998 0,-9.19933 -2.90039,-11.79931 -4.275,-3.9 -14.79406,-6.28213 -24.51123,-6.17432 z m 16.7373,8.68652 c 1.275,0.0625 2.47383,0.68672 3.67383,1.88672 1.1,1.1 2.00098,2.90049 2.00098,4.00049 0,2.6 -3.40069,6 -6.20069,6 -5.29998,0 -7.8991,-7.40039 -3.59912,-10.40039 1.5,-1.05 2.85,-1.54932 4.125,-1.48682 z m -29.83886,9.01172 c -1.5375,-0.025 -3.08702,0.42549 -5.18702,1.37549 -8.89999,3.8 -8.89999,16.49961 0,21.09961 10.79998,5.69998 26.90032,5.80029 39.3003,0.30029 5.29998,-2.4 5.6998,-2.99972 3.7998,-5.6997 l -1.40039,-2.10059 -5.6001,2.6001 c -3.99998,1.8 -7.89912,2.69961 -14.09912,3.09961 l -8.50049,0.50097 1.59961,-3.09961 c 3.3,-6.39998 1.20116,-13.70107 -4.79882,-16.60107 -2.05,-0.95 -3.57629,-1.4501 -5.11377,-1.4751 z m -0.58741,5.87549 c 0.9,0 2.70088,0.69961 3.90088,1.59961 4.2,2.9 1.79901,10.40039 -3.50097,10.40039 -2.5,0 -6.29883,-3.19943 -6.29883,-5.39941 0,-2.1 3.99894,-6.60059 5.89892,-6.60059 z m 25.73438,22.55713 c -0.55989,0 -0.97868,0.0954 -1.25537,0.28418 -0.27669,0.18554 -0.54037,0.49805 -0.79102,0.9375 -0.0586,0.10416 -0.13183,0.23714 -0.21972,0.3999 -0.0846,0.15951 -0.16163,0.29736 -0.22998,0.41455 -0.11068,0.1888 -0.2155,0.3488 -0.31641,0.47901 -0.10091,0.12695 -0.19629,0.22347 -0.28418,0.28857 -0.0846,0.0618 -0.17741,0.10579 -0.27832,0.13184 -0.10091,0.0228 -0.22787,0.0374 -0.38086,0.0439 v -2.96484 h -1.875 v 7.27148 h 1.875 v -2.93555 h 0.45996 l 2.14746,2.93555 h 2.29981 l -2.8462,-3.75 c 0.10743,-0.0586 0.21859,-0.15625 0.33252,-0.29297 0.11394,-0.13997 0.26042,-0.38183 0.43946,-0.72363 0.17903,-0.34505 0.34131,-0.58545 0.48779,-0.72217 0.14974,-0.13672 0.35856,-0.20508 0.62549,-0.20508 h 0.54199 v -1.57763 c -0.0618,0 -0.15837,-10e-4 -0.28857,-0.004 -0.13021,-0.006 -0.27784,-0.0102 -0.44385,-0.0102 z m -20.72315,0.0147 v 7.27148 h 1.875 v -2.36865 h 1.16749 c 0.53059,0 0.97233,-0.0732 1.32714,-0.21973 0.35808,-0.14648 0.68295,-0.36247 0.97266,-0.64892 0.21159,-0.21159 0.37386,-0.47299 0.48779,-0.78223 0.11393,-0.3125 0.17139,-0.63102 0.17139,-0.95654 0,-0.41992 -0.0781,-0.78011 -0.23438,-1.07959 -0.15299,-0.29948 -0.37646,-0.54476 -0.66943,-0.73682 -0.24414,-0.1595 -0.5262,-0.27783 -0.84521,-0.35596 -0.31576,-0.0814 -0.70378,-0.12304 -1.16602,-0.12304 z m 9.20362,0 -2.68506,7.27148 h 1.88965 l 0.50244,-1.4707 h 2.69531 l 0.50391,1.4707 h 1.93799 l -2.68506,-7.27148 z m -7.32862,1.35791 h 0.32227 c 0.30924,0 0.55713,0.005 0.74268,0.0146 0.18554,0.007 0.37597,0.0493 0.57129,0.12744 0.14648,0.0586 0.27457,0.16227 0.38525,0.31201 0.11068,0.14648 0.16553,0.32227 0.16553,0.52734 0,0.20834 -0.0267,0.38526 -0.082,0.53174 -0.0521,0.14323 -0.13884,0.26791 -0.25928,0.37207 -0.13998,0.11719 -0.31462,0.19531 -0.52295,0.23438 -0.20508,0.0391 -0.46615,0.0586 -0.78516,0.0586 h -0.5376 z m 8.38331,0.50244 0.89355,2.60742 h -1.78711 z"
         style="stroke-width:0.1" />
    </g>
    <g
       id="g1511"
       transform="matrix(9.9999998,0,0,-9.9999998,0,6120)"
       onclick="signClick(this,4)">
      <circle
         style="fill:#ff00ff;fill-opacity:1;stroke:#000000;stroke-width:0.99975;stroke-linecap:round;stroke-linejoin:round;stroke-opacity:1"
         id="path1506"
         cx="141.34644"
         cy="408.25061"
         r="40" />
      <path
         id="path24"
         d="M 1416.9141 2380.6055 C 1387.0254 2381.8945 1357.122 2375.3701 1331.9971 2359.9951 C 1256.9971 2313.9952 1243.0049 2239.995 1285.0049 2104.9951 C 1299.0049 2060.9952 1309.9951 2016.9932 1309.9951 2007.9932 C 1309.9951 1980.9932 1272.997 1950 1241.9971 1950 C 1188.9971 1950 1161.9942 2011 1193.9941 2055 C 1203.9941 2069 1204.9971 2079.9971 1196.9971 2096.9971 C 1183.9971 2125.997 1178.9941 2125.9941 1148.9941 2093.9941 C 1129.9942 2072.9942 1125 2058.0029 1125 2013.0029 C 1125 1963.003 1128.002 1955.999 1162.002 1923.999 C 1191.0019 1897.999 1207.9981 1890 1237.998 1890 C 1289.998 1890 1339.9942 1924.9981 1358.9941 1972.998 C 1371.9941 2008.998 1370.997 2017.9991 1346.9971 2103.999 C 1307.9971 2237.9989 1312.0069 2278.9932 1367.0068 2307.9932 C 1406.0068 2328.9931 1453.9932 2322.997 1482.9932 2291.9971 C 1521.9931 2251.9971 1519.0039 2208.9979 1469.0039 2107.998 C 1436.0039 2038.9981 1428.9981 2017.9961 1432.998 1980.9961 C 1441.998 1900.9962 1510.0001 1840.0049 1590 1840.0049 C 1622 1840.0049 1646.9951 1847.0029 1669.9951 1863.0029 C 1711.9951 1891.0029 1717.0049 1906 1690.0049 1920 C 1674.0049 1928 1664.9931 1927.0049 1647.9932 1915.0049 C 1609.9932 1889.0049 1552.999 1895.9942 1518.999 1928.9941 C 1479.9991 1968.9941 1482 1999.004 1530 2099.0039 C 1580 2201.0038 1583.0039 2255.9991 1544.0039 2313.999 C 1516.5039 2354.624 1466.7285 2378.457 1416.9141 2380.6055 z M 1296.0498 1823.5254 C 1295.9521 1818.3822 1295.8431 1813.8037 1295.7129 1809.7998 C 1295.6152 1805.8285 1295.4687 1802.1549 1295.2734 1798.7695 C 1294.8177 1790.2409 1294.1227 1783.6002 1293.1787 1778.8477 C 1292.2673 1774.1276 1290.5697 1770.6868 1288.0957 1768.5059 C 1287.4121 1767.9199 1286.6309 1767.5033 1285.752 1767.2754 C 1284.873 1767.0475 1283.5172 1766.9385 1281.6943 1766.9385 C 1281.2061 1766.9385 1280.7666 1766.9499 1280.376 1766.9824 C 1280.0179 1767.015 1279.7021 1767.0524 1279.4092 1767.085 L 1278.7207 1767.085 L 1278.7207 1750.8252 C 1279.209 1750.7601 1280.3206 1750.6624 1282.0459 1750.5322 C 1283.8037 1750.402 1285.4867 1750.3418 1287.1143 1750.3418 C 1289.7835 1750.3418 1292.3112 1750.7926 1294.6875 1751.7041 C 1297.0638 1752.6156 1299.0544 1753.8363 1300.6494 1755.3662 C 1301.8864 1756.5381 1303.1185 1758.0518 1304.3555 1759.9072 C 1305.5924 1761.7627 1306.7643 1764.1553 1307.8711 1767.085 C 1308.9453 1769.9821 1309.9105 1773.6556 1310.7568 1778.1152 C 1311.6357 1782.6074 1312.2819 1788.1364 1312.7051 1794.7119 C 1312.9004 1797.7067 1313.0469 1800.1253 1313.1445 1801.9482 C 1313.2422 1803.7712 1313.3773 1806.2728 1313.54 1809.4629 L 1334.3408 1809.4629 L 1334.3408 1750.8252 L 1353.0908 1750.8252 L 1353.0908 1823.5254 L 1296.0498 1823.5254 z M 1371.6357 1823.5254 L 1371.6357 1750.8252 L 1424.2236 1750.8252 L 1424.2236 1764.8877 L 1390.2979 1764.8877 L 1390.2979 1782.8613 L 1421.792 1782.8613 L 1421.792 1796.9092 L 1390.2979 1796.9092 L 1390.2979 1809.4629 L 1424.2236 1809.4629 L 1424.2236 1823.5254 L 1371.6357 1823.5254 z M 1439.9561 1823.5254 L 1439.9561 1750.8252 L 1471.6846 1750.8252 C 1476.958 1750.8252 1481.3037 1751.276 1484.7217 1752.1875 C 1488.1722 1753.099 1491.3346 1754.6387 1494.1992 1756.7871 C 1496.6732 1758.61 1498.6149 1760.905 1500.0146 1763.6719 C 1501.4469 1766.4388 1502.1533 1769.5752 1502.1533 1773.0908 C 1502.1533 1777.9411 1500.7633 1781.8473 1497.9639 1784.8096 C 1495.1969 1787.7718 1491.4372 1789.7249 1486.6846 1790.6689 L 1486.6846 1791.0645 C 1490.07 1792.5618 1492.6807 1794.6354 1494.5361 1797.3047 C 1496.3916 1800.0065 1497.3193 1803.1201 1497.3193 1806.6357 C 1497.3193 1809.6631 1496.6357 1812.3486 1495.2686 1814.6924 C 1493.9339 1817.0687 1491.8831 1818.9469 1489.1162 1820.3467 C 1486.4469 1821.6813 1483.75 1822.5488 1481.0156 1822.9395 C 1478.3138 1823.3301 1474.0283 1823.5254 1468.1689 1823.5254 L 1439.9561 1823.5254 z M 1458.6035 1810.1953 L 1460.3613 1810.1953 C 1464.0397 1810.1953 1466.8831 1810.1579 1468.9014 1810.0928 C 1470.9521 1810.0602 1472.6611 1809.7933 1474.0283 1809.2725 C 1475.5583 1808.6865 1476.6211 1807.7816 1477.207 1806.5771 C 1477.8255 1805.3727 1478.1299 1804.1781 1478.1299 1802.9736 C 1478.1299 1801.4111 1477.8743 1800.0179 1477.3535 1798.8135 C 1476.8327 1797.6416 1475.721 1796.6911 1474.0283 1795.9424 C 1472.8239 1795.389 1471.1898 1795.0586 1469.1064 1794.9609 C 1467.0231 1794.8633 1464.4954 1794.8145 1461.5332 1794.8145 L 1458.6035 1794.8145 L 1458.6035 1810.1953 z M 1458.6035 1782.2754 L 1462.7051 1782.2754 C 1465.5045 1782.2754 1468.1901 1782.2493 1470.7617 1782.2168 C 1473.3333 1782.1842 1475.3467 1781.9661 1476.8115 1781.543 C 1478.96 1780.9245 1480.4736 1779.9707 1481.3525 1778.7012 C 1482.264 1777.4642 1482.7295 1775.695 1482.7295 1773.3838 C 1482.7295 1771.626 1482.3503 1770.0635 1481.6016 1768.6963 C 1480.8854 1767.3617 1479.5557 1766.2874 1477.6025 1765.4736 C 1475.682 1764.6598 1473.5823 1764.2318 1471.3037 1764.1992 C 1469.0251 1764.1667 1465.2392 1764.1553 1459.9658 1764.1553 L 1458.6035 1764.1553 L 1458.6035 1782.2754 z "
         transform="matrix(0.1,0,0,-0.1,0,612)" />
    </g>
    <g
       id="g1413"
       transform="matrix(9.9999998,0,0,-9.9999998,0,6120)"
       onclick="signClick(this,1)">
      <circle
         style="fill:#ff00ff;fill-opacity:1;stroke:#000000;stroke-width:0.99975;stroke-linecap:round;stroke-linejoin:round;stroke-opacity:1"
         id="path1459"
         cx="397.36365"
         cy="478.92383"
         r="40" />
      <path
         id="text1402"
         style="font-weight:normal;font-size:14.4039px;font-family:sans-serif;-inkscape-font-specification:'sans-serif, Normal';white-space:pre;shape-inside:url(#rect1404);fill:#000000;fill-opacity:1;stroke:#000000;stroke-width:1.333;stroke-linecap:round;stroke-linejoin:round;stroke-opacity:1;font-style:normal;font-stretch:normal;font-variant:normal;font-variant-ligatures:normal;font-variant-caps:normal;font-variant-numeric:normal;font-variant-east-asian:normal"
         d="M 488.35118 600 C 485.28452 600 484.35118 600.53268 484.35118 602.66602 C 484.35118 607.19934 488.21681 615.06628 492.61681 619.59961 L 496.74962 623.86719 L 492.484 627.86719 C 482.21734 637.46718 481.4163 653.19949 490.74962 664.13281 C 502.34961 677.59947 520.48414 678.00025 531.95079 664.93359 C 541.55078 654.00027 541.01628 639.06705 530.74962 628.40039 L 526.61681 624.13281 L 531.41759 618.80078 C 536.08425 613.60079 539.95118 603.86732 538.35118 601.33398 C 537.95118 600.53399 536.21733 600 534.484 600 C 532.21733 600 531.28412 601.20053 529.95079 605.86719 C 527.01746 617.06718 513.41719 623.06575 503.0172 617.73242 C 497.68387 614.93242 492.35118 607.73255 492.35118 603.19922 C 492.35118 600.53255 491.68451 600 488.35118 600 z M 510.67345 628.12695 C 514.36719 627.86758 518.11759 628.66602 521.41759 630.66602 C 537.41757 640.53267 531.95142 664.40091 513.28478 666.26758 C 497.95146 667.73424 487.01721 650.66626 495.0172 637.59961 C 498.5172 631.93295 504.5172 628.55924 510.67345 628.12695 z M 485.18907 677.32227 L 485.18907 678.56055 L 488.93126 678.56055 L 488.93126 687.79492 L 490.32384 687.79492 L 490.32384 678.56055 L 494.06603 678.56055 L 494.06603 677.32227 L 485.18907 677.32227 z M 495.47228 677.32227 L 495.47228 687.79492 L 502.37071 687.79492 L 502.37071 686.55664 L 496.86485 686.55664 L 496.86485 682.66797 L 502.37071 682.66797 L 502.37071 681.42969 L 496.86485 681.42969 L 496.86485 678.56055 L 502.37071 678.56055 L 502.37071 677.32227 L 495.47228 677.32227 z M 505.85314 677.32227 C 505.83438 677.95525 505.81096 678.65253 505.78282 679.41211 C 505.75938 680.17169 505.73595 680.78074 505.71251 681.24023 C 505.64687 682.65155 505.53404 683.73964 505.37462 684.50391 C 505.21989 685.26817 504.9751 685.81749 504.6422 686.15039 C 504.53905 686.25823 504.41333 686.3371 504.26329 686.38867 C 504.11325 686.44025 503.95357 686.4668 503.78478 686.4668 C 503.71445 686.4668 503.64417 686.46367 503.57384 686.45898 C 503.50351 686.4543 503.44495 686.45 503.39806 686.44531 L 503.3004 686.44531 L 503.3004 687.79492 C 503.35667 687.79492 503.45466 687.79805 503.59532 687.80273 C 503.73599 687.81211 503.85623 687.81641 503.9547 687.81641 C 504.27353 687.81641 504.55034 687.77268 504.78478 687.68359 C 505.0239 687.59451 505.25503 687.44654 505.48009 687.24023 C 505.70046 687.03862 505.89528 686.81296 506.06407 686.56445 C 506.23756 686.31126 506.39294 685.97472 506.52892 685.55273 C 506.66489 685.13543 506.7746 684.60213 506.859 683.95508 C 506.94808 683.30803 507.01094 682.48386 507.04845 681.48047 C 507.06251 681.08192 507.08165 680.62943 507.10509 680.12305 C 507.13322 679.61197 507.15352 679.09038 507.16759 678.56055 L 510.95275 678.56055 L 510.95275 687.79492 L 512.34532 687.79492 L 512.34532 677.32227 L 505.85314 677.32227 z M 515.15782 677.32227 L 515.15782 687.79492 L 522.05821 687.79492 L 522.05821 686.55664 L 516.5504 686.55664 L 516.5504 682.66797 L 522.05821 682.66797 L 522.05821 681.42969 L 516.5504 681.42969 L 516.5504 678.56055 L 522.05821 678.56055 L 522.05821 677.32227 L 515.15782 677.32227 z M 524.26525 677.32227 L 524.26525 687.79492 L 531.87462 687.79492 L 531.87462 690.16602 L 533.19689 690.16602 L 533.19689 686.57227 L 532.20665 686.57227 L 532.20665 677.32227 L 530.81407 677.32227 L 530.81407 686.57227 L 525.65782 686.57227 L 525.65782 677.32227 L 524.26525 677.32227 z "
         transform="matrix(0.75,0,0,0.75,14.237101,-3)" />
    </g>
    <g
       id="g1482"
       transform="matrix(9.9999998,0,0,-9.9999998,0,6120)"
       onclick="signClick(this,2)">
      <circle
         style="fill:#ff00ff;fill-opacity:1;stroke:#000000;stroke-width:0.99975;stroke-linecap:round;stroke-linejoin:round;stroke-opacity:1"
         id="path1468"
         cx="306.00003"
         cy="504.86243"
         r="40"
         inkscape:label="path1468" />
      <path
         id="path34"
         d="M 2858.9941 1376.9971 L 2843.9941 1347.9932 C 2829.9942 1320.9932 2830.002 1318.999 2857.002 1308.999 C 2872.0019 1302.999 2897.0029 1296.0029 2913.0029 1293.0029 L 2940 1286.9971 L 2937.9932 1112.0068 L 2935.0049 937.00195 L 2894.0039 925.00488 C 2833.004 907.0049 2829.002 902.99509 2842.002 874.99512 C 2855.0019 845.99515 2863.001 845.001 2921.001 866.00098 C 2988.0009 891.00095 3149.001 889.00193 3221.001 862.00195 L 3277.998 842.00684 L 3288.999 866.00098 C 3305.999 904.00094 3303.9941 907.00587 3248.9941 921.00586 C 3218.9942 929.00585 3195.001 941.00587 3191.001 951.00586 C 3188.001 961.00585 3187.0049 1039.0001 3190.0049 1125 L 3195 1282.002 L 3240 1297.002 C 3297.9999 1316.0019 3302.999 1322.0069 3288.999 1352.0068 L 3277.998 1376.9971 L 3217.002 1357.998 C 3132.002 1330.9981 2995.0019 1331.002 2917.002 1357.002 L 2858.9941 1376.9971 z M 3000 1270.0049 L 3060 1270.0049 L 3120 1270.0049 L 3120 1110 L 3120 949.99512 L 3060 949.99512 L 3000 949.99512 L 3000 1110 L 3000 1270.0049 z M 3019.585 835.88379 C 3015.4183 835.88379 3011.4128 835.48991 3007.5586 834.68262 C 3003.7305 833.90137 3000.4883 833.02409 2997.832 832.06055 L 2997.832 819.8291 L 2999.2676 819.8291 C 3000.3874 820.34994 3001.46 820.85775 3002.4756 821.35254 C 3003.4912 821.87337 3004.8405 822.43815 3006.5332 823.03711 C 3008.0957 823.55794 3009.7363 824.00879 3011.4551 824.39941 C 3013.1738 824.79004 3015.0456 824.98535 3017.0508 824.98535 C 3020.4102 824.98535 3023.0485 824.55241 3024.9756 823.66699 C 3026.9287 822.78157 3027.9053 821.35743 3027.9053 819.4043 C 3027.9053 818.25846 3027.749 817.30306 3027.4365 816.54785 C 3027.1501 815.79264 3026.6032 815.10742 3025.7959 814.48242 C 3025.0667 813.93555 3023.9941 813.50586 3022.5879 813.19336 C 3021.1816 812.9069 3019.502 812.76855 3017.5488 812.76855 L 3007.2363 812.76855 L 3007.2363 802.36816 L 3017.9443 802.36816 C 3019.8975 802.36816 3021.595 802.26888 3023.0273 802.06055 C 3024.4857 801.85221 3025.6966 801.47949 3026.6602 800.93262 C 3027.6237 800.33366 3028.3268 799.55567 3028.7695 798.61816 C 3029.2383 797.68066 3029.4727 796.46647 3029.4727 794.95605 C 3029.4727 793.36751 3029.1602 792.06055 3028.5352 791.04492 C 3027.9102 790.05534 3026.9548 789.17806 3025.6787 788.42285 C 3024.5329 787.71973 3023.1087 787.20866 3021.416 786.87012 C 3019.7233 786.53157 3017.8483 786.35742 3015.791 786.35742 C 3013.6816 786.35742 3011.8245 786.55273 3010.21 786.94336 C 3008.6214 787.36003 3006.8848 787.9248 3005.0098 788.62793 C 3003.5254 789.17481 3002.041 789.82096 3000.5566 790.57617 C 2999.0983 791.35742 2998.0046 791.96126 2997.2754 792.37793 L 2995.8691 792.37793 L 2995.8691 779.25293 C 2998.89 778.10709 3002.207 777.19076 3005.8008 776.51367 C 3009.4206 775.81055 3013.3268 775.45898 3017.5195 775.45898 C 3022.2852 775.45898 3026.3118 775.87077 3029.6191 776.7041 C 3032.9264 777.56348 3035.778 778.81347 3038.1738 780.4541 C 3040.4655 782.0166 3042.1842 783.96647 3043.3301 786.28418 C 3044.502 788.60189 3045.0879 791.1442 3045.0879 793.93066 C 3045.0879 796.43067 3044.6761 798.47981 3043.8428 800.06836 C 3043.0094 801.68295 3041.9369 803.03222 3040.6348 804.12598 C 3039.3587 805.19369 3037.9492 806.014 3036.3867 806.58691 C 3034.8503 807.18587 3033.3691 807.6123 3031.9629 807.84668 L 3031.9629 808.43262 C 3035.3744 809.23991 3038.1478 810.84147 3040.2832 813.2373 C 3042.4447 815.63314 3043.5352 818.48469 3043.5352 821.79199 C 3043.5352 826.21909 3041.5251 829.65983 3037.5146 832.13379 C 3033.5303 834.63379 3027.5537 835.88379 3019.585 835.88379 z M 2804.3555 834.75586 L 2804.3555 776.58691 L 2831.1914 776.58691 C 2834.8372 776.58691 2837.9264 776.93848 2840.4785 777.6416 C 2843.0566 778.37077 2845.5355 779.69563 2847.9053 781.59668 C 2849.7803 783.1071 2851.2467 785.04231 2852.3145 787.41211 C 2853.4082 789.80795 2853.9551 792.42512 2853.9551 795.26367 C 2853.9551 798.07618 2853.5042 800.6722 2852.5928 803.04199 C 2851.6813 805.43783 2850.2181 807.41211 2848.2129 808.97461 C 2846.2337 810.53711 2843.9648 811.6097 2841.3867 812.18262 C 2838.8086 812.78158 2835.4883 813.07617 2831.4258 813.07617 L 2819.2676 813.07617 L 2819.2676 823.50586 L 2849.5459 823.50586 L 2849.5459 834.75586 L 2804.3555 834.75586 z M 2872.1191 834.75586 C 2872.041 830.64127 2871.9596 826.98731 2871.8555 823.78418 C 2871.7773 820.60709 2871.6602 817.65951 2871.5039 814.95117 C 2871.1393 808.12824 2870.5745 802.81576 2869.8193 799.01367 C 2869.0902 795.23762 2867.7409 792.4821 2865.7617 790.7373 C 2865.2148 790.26855 2864.5898 789.93815 2863.8867 789.75586 C 2863.1836 789.57357 2862.0931 789.47754 2860.6348 789.47754 C 2860.2441 789.47754 2859.8926 789.49544 2859.5801 789.52148 C 2859.2936 789.54753 2859.0381 789.56868 2858.8037 789.59473 L 2858.2617 789.59473 L 2858.2617 776.58691 C 2858.6523 776.53483 2859.5329 776.45671 2860.9131 776.35254 C 2862.3193 776.24837 2863.6686 776.20605 2864.9707 776.20605 C 2867.1061 776.20605 2869.1341 776.56087 2871.0352 777.29004 C 2872.9362 778.01921 2874.5199 778.99577 2875.7959 780.21973 C 2876.7855 781.15723 2877.7799 782.36816 2878.7695 783.85254 C 2879.7591 785.33692 2880.6966 787.25097 2881.582 789.59473 C 2882.4414 791.91244 2883.2048 794.86002 2883.8818 798.42773 C 2884.585 802.02149 2885.1107 806.45344 2885.4492 811.71387 C 2885.6055 814.10971 2885.7227 816.02702 2885.8008 817.48535 C 2885.8789 818.94369 2885.9782 820.95377 2886.1084 823.50586 L 2902.749 823.50586 L 2902.749 776.58691 L 2917.749 776.58691 L 2917.749 834.75586 L 2872.1191 834.75586 z M 2932.5879 834.75586 L 2932.5879 776.58691 L 2946.8848 776.58691 L 2971.0254 815.30273 L 2971.0254 776.58691 L 2985.6445 776.58691 L 2985.6445 834.75586 L 2969.6631 834.75586 L 2947.207 799.7168 L 2947.207 834.75586 L 2932.5879 834.75586 z M 3056.7773 834.75586 L 3056.7773 776.58691 L 3071.7773 776.58691 L 3071.7773 802.22168 L 3093.9258 802.22168 L 3093.9258 776.58691 L 3108.9258 776.58691 L 3108.9258 834.75586 L 3093.9258 834.75586 L 3093.9258 813.47168 L 3071.7773 813.47168 L 3071.7773 834.75586 L 3056.7773 834.75586 z M 3123.7646 834.75586 L 3123.7646 776.58691 L 3165.835 776.58691 L 3165.835 787.83691 L 3138.6914 787.83691 L 3138.6914 802.22168 L 3163.8867 802.22168 L 3163.8867 813.47168 L 3138.6914 813.47168 L 3138.6914 823.50586 L 3165.835 823.50586 L 3165.835 834.75586 L 3123.7646 834.75586 z M 3178.418 834.75586 L 3178.418 776.58691 L 3222.4072 776.58691 L 3222.4072 763.22754 L 3236.1914 763.22754 L 3236.1914 787.71973 L 3230.4492 787.71973 L 3230.4492 834.75586 L 3215.4492 834.75586 L 3215.4492 787.71973 L 3193.418 787.71973 L 3193.418 834.75586 L 3178.418 834.75586 z M 3246.3867 834.75586 L 3246.3867 776.58691 L 3273.2227 776.58691 C 3276.8685 776.58691 3279.9723 776.93848 3282.5244 777.6416 C 3285.1025 778.37077 3287.5667 779.69563 3289.9365 781.59668 C 3291.8115 783.1071 3293.2926 785.04231 3294.3604 787.41211 C 3295.4541 789.80795 3296.001 792.42512 3296.001 795.26367 C 3296.001 798.07618 3295.5355 800.6722 3294.624 803.04199 C 3293.7126 805.43783 3292.264 807.41211 3290.2588 808.97461 C 3288.2796 810.53711 3285.9782 811.6097 3283.374 812.18262 C 3280.7959 812.78158 3277.4935 813.07617 3273.457 813.07617 L 3261.3867 813.07617 L 3261.3867 834.75586 L 3246.3867 834.75586 z M 3301.5381 834.75586 L 3301.5381 776.58691 L 3316.5381 776.58691 L 3316.5381 834.75586 L 3301.5381 834.75586 z M 2819.2676 802.25098 L 2828.8037 802.25098 C 2830.9652 802.25098 2832.6628 802.05241 2833.8867 801.63574 C 2835.1107 801.21907 2836.0693 800.6543 2836.7725 799.95117 C 2837.4756 799.222 2837.9264 798.42285 2838.1348 797.56348 C 2838.3431 796.7041 2838.457 795.80241 2838.457 794.83887 C 2838.457 793.77116 2838.2617 792.7946 2837.8711 791.90918 C 2837.5065 791.0498 2836.9629 790.30762 2836.2598 789.68262 C 2835.5566 789.03157 2834.541 788.48796 2833.2129 788.07129 C 2831.9108 787.65462 2830.4443 787.45605 2828.8037 787.45605 L 2819.2676 787.45605 L 2819.2676 802.25098 z M 3261.3867 802.25098 L 3270.835 802.25098 C 3272.9964 802.25098 3274.694 802.05241 3275.918 801.63574 C 3277.1419 801.21907 3278.1006 800.6543 3278.8037 799.95117 C 3279.5068 799.222 3279.9723 798.42285 3280.1807 797.56348 C 3280.389 796.7041 3280.4883 795.80241 3280.4883 794.83887 C 3280.4883 793.77116 3280.293 792.7946 3279.9023 791.90918 C 3279.5378 791.0498 3279.0088 790.30762 3278.3057 789.68262 C 3277.6025 789.03157 3276.5869 788.48796 3275.2588 788.07129 C 3273.9567 787.65462 3272.4756 787.45605 3270.835 787.45605 L 3261.3867 787.45605 L 3261.3867 802.25098 z "
         transform="matrix(0.1,0,0,-0.1,0,612)" />
    </g>
    <g
       id="g1322"
       onclick="signClick(this,10)">
      <ellipse
         style="fill:#ff00ff;fill-opacity:1;stroke:#000000;stroke-width:9.9975;stroke-linecap:round;stroke-linejoin:round;stroke-opacity:1"
         id="path1314"
         cx="4676.4248"
         cy="-3909.5457"
         transform="scale(1,-1)"
         rx="428.55035"
         ry="413.51352" />
      <path
         id="path14"
         d="M 4477.002 4180.0049 C 4446.002 4180.0049 4435.0008 4171.993 4391.001 4122.9932 C 4363.001 4091.9932 4339.9951 4063.0049 4339.9951 4060.0049 C 4339.9951 4057.0049 4356.0049 4054.0029 4375.0049 4053.0029 C 4403.0049 4053.0029 4414.0049 4059.0059 4435.0049 4086.0059 C 4449.0049 4105.0057 4468.002 4120.0049 4477.002 4120.0049 C 4486.0018 4120.0049 4510 4102 4530 4080 C 4559 4048 4574.001 4039.9951 4601.001 4039.9951 C 4629.0008 4039.9951 4644.0049 4049 4675.0049 4080 C 4696.0049 4102 4717.9932 4120.0049 4722.9932 4120.0049 C 4728.9932 4120.0049 4752.0059 4102 4776.0059 4080 C 4840.0057 4021.0002 4868.9963 4024.007 4935.9961 4097.0068 C 4964.9961 4128.0068 4986.999 4157.002 4983.999 4162.002 C 4980.999 4166.0018 4966 4170 4950 4170 C 4929 4170 4913.0029 4161.0049 4893.0029 4135.0049 C 4878.0029 4116.0049 4857.9951 4099.9951 4849.9951 4099.9951 C 4841.9951 4099.9951 4819.0039 4118 4799.0039 4140 C 4769.0039 4173 4756 4180.0049 4725 4180.0049 C 4694 4180.0049 4680.9961 4173 4650.9961 4140 C 4630.9961 4118 4608.9971 4099.9951 4601.9971 4099.9951 C 4594.9971 4099.9951 4572.0057 4118 4551.0059 4140 C 4521.0059 4172 4506.0018 4180.0049 4477.002 4180.0049 z M 4477.002 3949.9951 C 4446.002 3949.9951 4435.0008 3941.998 4391.001 3892.998 C 4363.001 3860.9982 4339.9951 3831.0068 4339.9951 3827.0068 C 4339.9951 3823.0068 4356.0049 3819.9971 4375.0049 3821.9971 C 4402.0049 3823.9971 4417.001 3832.007 4436.001 3857.0068 C 4450.001 3875.0068 4468.0059 3889.9951 4476.0059 3889.9951 C 4484.0059 3889.9951 4508.0039 3872.0049 4529.0039 3850.0049 C 4559.0039 3818.0049 4574.001 3810 4601.001 3810 C 4629.0008 3810 4644.0049 3819.0049 4675.0049 3850.0049 C 4696.0049 3872.0049 4717.9932 3889.9951 4722.9932 3889.9951 C 4728.9932 3889.9951 4752.0059 3872.0049 4776.0059 3850.0049 C 4840.0057 3791.0049 4869.007 3793.9971 4937.0068 3866.9971 C 4966.0068 3897.9969 4990.0049 3927.0068 4990.0049 3932.0068 C 4990.0049 3936.0068 4974.0057 3940.0049 4956.0059 3940.0049 C 4928.0059 3940.0049 4915.999 3932.9951 4893.999 3904.9951 C 4879.999 3885.9951 4861.0018 3870 4852.002 3870 C 4844.002 3870 4820 3888.0049 4800 3910.0049 C 4769 3943.0047 4757 3949.9951 4725 3949.9951 C 4694 3949.9951 4680.9961 3943.0047 4650.9961 3910.0049 C 4630.9961 3888.0049 4608.9971 3870 4601.9971 3870 C 4594.9971 3870 4572.0057 3888.0049 4551.0059 3910.0049 C 4521.0059 3942.0049 4506.0018 3949.9951 4477.002 3949.9951 z M 4900.3125 3742.5439 C 4900.3477 3736.0031 4902.8307 3730.8614 4907.7539 3727.1338 C 4912.6771 3723.4062 4919.6167 3721.5381 4928.584 3721.5381 C 4937.5512 3721.5381 4944.4909 3723.4062 4949.4141 3727.1338 C 4954.3373 3730.8614 4956.8203 3736.0031 4956.8555 3742.5439 L 4939.1309 3742.5439 C 4939.0605 3738.746 4938.2612 3735.9761 4936.7139 3734.2529 C 4935.1666 3732.5298 4932.4522 3731.6748 4928.584 3731.6748 C 4924.7158 3731.6748 4922.016 3732.521 4920.4688 3734.209 C 4918.9215 3735.9321 4918.1074 3738.7109 4918.0371 3742.5439 L 4900.3125 3742.5439 z M 4488.8672 3718.2715 C 4476.2427 3718.2715 4466.3486 3714.6055 4459.1748 3707.2559 C 4452.001 3699.9414 4448.4082 3689.9682 4448.4082 3677.3437 C 4448.4082 3664.8247 4452.001 3654.875 4459.1748 3647.4902 C 4466.3486 3640.1406 4476.2427 3636.46 4488.8672 3636.46 C 4501.5269 3636.46 4511.4444 3640.1406 4518.6182 3647.4902 C 4525.792 3654.875 4529.3848 3664.8247 4529.3848 3677.3437 C 4529.3848 3689.9682 4525.7832 3699.9414 4518.5742 3707.2559 C 4511.3652 3714.6055 4501.4565 3718.2715 4488.8672 3718.2715 z M 4671.5918 3718.2715 C 4658.9673 3718.2715 4649.0732 3714.6055 4641.8994 3707.2559 C 4634.7256 3699.9414 4631.1328 3689.9682 4631.1328 3677.3437 C 4631.1328 3664.8247 4634.7256 3654.875 4641.8994 3647.4902 C 4649.0732 3640.1406 4658.9673 3636.46 4671.5918 3636.46 C 4684.2515 3636.46 4694.169 3640.1406 4701.3428 3647.4902 C 4708.5166 3654.875 4712.1094 3664.8247 4712.1094 3677.3437 C 4712.1094 3689.9682 4708.4932 3699.9414 4701.2842 3707.2559 C 4694.0752 3714.6055 4684.1811 3718.2715 4671.5918 3718.2715 z M 4370.7129 3716.6455 L 4370.7129 3638.1006 L 4405.0049 3638.1006 C 4410.7017 3638.1006 4415.3896 3638.5954 4419.082 3639.5801 C 4422.8096 3640.5647 4426.2267 3642.2103 4429.3213 3644.5312 C 4431.9939 3646.5005 4434.0787 3648.9836 4435.5908 3651.9727 C 4437.1381 3654.9617 4437.9199 3658.3554 4437.9199 3662.1533 C 4437.9199 3667.393 4436.4032 3671.6095 4433.3789 3674.8096 C 4430.3898 3678.0097 4426.3256 3680.1179 4421.1914 3681.1377 L 4421.1914 3681.5625 C 4424.8486 3683.1801 4427.6831 3685.4318 4429.6875 3688.3154 C 4431.6919 3691.2342 4432.6904 3694.5957 4432.6904 3698.3936 C 4432.6904 3701.664 4431.9555 3704.5628 4430.4785 3707.0947 C 4429.0367 3709.6618 4426.8172 3711.7056 4423.8281 3713.2178 C 4420.9445 3714.6596 4418.0369 3715.579 4415.083 3716.001 C 4412.1643 3716.423 4407.5408 3716.6455 4401.2109 3716.6455 L 4370.7129 3716.6455 z M 4555.6055 3716.6455 C 4555.6055 3704.443 4554.5045 3692.9765 4552.3242 3682.251 C 4550.1791 3671.5254 4547.0724 3661.8802 4542.9932 3653.335 L 4537.0313 3653.335 L 4537.0313 3620.0537 L 4555.6494 3620.0537 L 4555.6494 3638.3643 L 4603.3301 3638.3643 L 4603.3301 3620.0537 L 4621.9629 3620.0537 L 4621.9629 3653.335 L 4614.1992 3653.335 L 4614.1992 3716.6455 L 4555.6055 3716.6455 z M 4737.2168 3716.6455 C 4737.1113 3711.0893 4736.9912 3706.1467 4736.8506 3701.8213 C 4736.7451 3697.5311 4736.5782 3693.5547 4736.3672 3689.8975 C 4735.8749 3680.684 4735.1165 3673.5131 4734.0967 3668.3789 C 4733.112 3663.2799 4731.2908 3659.5436 4728.6182 3657.1875 C 4727.8797 3656.5545 4727.0335 3656.1153 4726.084 3655.8691 C 4725.1345 3655.623 4723.6734 3655.5029 4721.7041 3655.5029 C 4721.1766 3655.5029 4720.7052 3655.5264 4720.2832 3655.5615 C 4719.8964 3655.5967 4719.545 3655.6289 4719.2285 3655.6641 L 4718.4814 3655.6641 L 4718.4814 3638.1006 C 4719.0089 3638.0303 4720.2065 3637.919 4722.0703 3637.7783 C 4723.9693 3637.6377 4725.8052 3637.5732 4727.5635 3637.5732 C 4730.4471 3637.5732 4733.1702 3638.0681 4735.7373 3639.0527 C 4738.3044 3640.0374 4740.4448 3641.355 4742.168 3643.0078 C 4743.5043 3644.2738 4744.8453 3645.9106 4746.1816 3647.915 C 4747.5179 3649.9195 4748.78 3652.4991 4749.9756 3655.6641 C 4751.1361 3658.7938 4752.1814 3662.7702 4753.0957 3667.5879 C 4754.0452 3672.4408 4754.7479 3678.4141 4755.2051 3685.5176 C 4755.4161 3688.7528 4755.5683 3691.3559 4755.6738 3693.3252 C 4755.7793 3695.2945 4755.9228 3698.0088 4756.0986 3701.4551 L 4778.5693 3701.4551 L 4778.5693 3638.1006 L 4798.8281 3638.1006 L 4798.8281 3716.6455 L 4737.2168 3716.6455 z M 4818.8672 3716.6455 L 4818.8672 3638.1006 L 4875.6738 3638.1006 L 4875.6738 3653.291 L 4839.0234 3653.291 L 4839.0234 3672.7002 L 4873.0371 3672.7002 L 4873.0371 3687.8906 L 4839.0234 3687.8906 L 4839.0234 3701.4551 L 4875.6738 3701.4551 L 4875.6738 3716.6455 L 4818.8672 3716.6455 z M 4892.666 3716.6455 L 4892.666 3638.1006 L 4911.9727 3638.1006 L 4944.5654 3690.3662 L 4944.5654 3638.1006 L 4964.2969 3638.1006 L 4964.2969 3716.6455 L 4942.7197 3716.6455 L 4912.3975 3669.3311 L 4912.3975 3716.6455 L 4892.666 3716.6455 z M 4488.9258 3703.4473 C 4491.4577 3703.4473 4493.8851 3702.9758 4496.2061 3702.0264 C 4498.5622 3701.0769 4500.6382 3699.5514 4502.4316 3697.4414 C 4504.1899 3695.4018 4505.6042 3692.7196 4506.6943 3689.4141 C 4507.7845 3686.1085 4508.335 3682.0999 4508.335 3677.3877 C 4508.335 3672.992 4507.8635 3669.1591 4506.9141 3665.8887 C 4505.9646 3662.6534 4504.5035 3659.8424 4502.5342 3657.4512 C 4500.7759 3655.3412 4498.7233 3653.7835 4496.3672 3652.7637 C 4494.0111 3651.779 4491.528 3651.2842 4488.9258 3651.2842 C 4486.3235 3651.2842 4483.8405 3651.779 4481.4844 3652.7637 C 4479.1283 3653.7483 4477.0757 3655.2739 4475.3174 3657.3486 C 4473.5591 3659.4234 4472.1302 3662.0909 4471.04 3665.3613 C 4469.9851 3668.6669 4469.458 3672.6667 4469.458 3677.3437 C 4469.458 3681.9153 4470.0085 3685.9239 4471.0986 3689.3701 C 4472.2239 3692.8515 4473.6616 3695.5747 4475.4199 3697.5439 C 4477.3189 3699.6539 4479.3949 3701.1707 4481.6455 3702.085 C 4483.9313 3702.9993 4486.3587 3703.4473 4488.9258 3703.4473 z M 4671.6504 3703.4473 C 4674.1823 3703.4473 4676.6097 3702.9758 4678.9307 3702.0264 C 4681.2868 3701.0769 4683.3628 3699.5514 4685.1563 3697.4414 C 4686.9145 3695.4018 4688.3288 3692.7196 4689.4189 3689.4141 C 4690.5091 3686.1085 4691.0596 3682.0999 4691.0596 3677.3877 C 4691.0596 3672.992 4690.5881 3669.1591 4689.6387 3665.8887 C 4688.6892 3662.6534 4687.2281 3659.8424 4685.2588 3657.4512 C 4683.5005 3655.3412 4681.4333 3653.7835 4679.0771 3652.7637 C 4676.721 3651.779 4674.2527 3651.2842 4671.6504 3651.2842 C 4669.0481 3651.2842 4666.5651 3651.779 4664.209 3652.7637 C 4661.8529 3653.7483 4659.8003 3655.2739 4658.042 3657.3486 C 4656.2837 3659.4234 4654.8548 3662.0909 4653.7646 3665.3613 C 4652.7097 3668.6669 4652.1826 3672.6667 4652.1826 3677.3437 C 4652.1826 3681.9153 4652.7331 3685.9239 4653.8232 3689.3701 C 4654.9485 3692.8515 4656.3862 3695.5747 4658.1445 3697.5439 C 4660.0435 3699.6539 4662.1195 3701.1707 4664.3701 3702.085 C 4666.6559 3702.9993 4669.0833 3703.4473 4671.6504 3703.4473 z M 4390.8691 3702.2461 L 4392.7588 3702.2461 C 4396.7325 3702.2461 4399.8217 3702.1992 4402.002 3702.1289 C 4404.2174 3702.0937 4406.0621 3701.798 4407.5391 3701.2354 C 4409.1919 3700.6024 4410.3338 3699.6361 4410.9668 3698.335 C 4411.6349 3697.0338 4411.9629 3695.7396 4411.9629 3694.4385 C 4411.9629 3692.7505 4411.6906 3691.2572 4411.1279 3689.9561 C 4410.5653 3688.6901 4409.3677 3687.6447 4407.5391 3686.8359 C 4406.2379 3686.2381 4404.4576 3685.8867 4402.207 3685.7812 C 4399.9564 3685.6758 4397.2333 3685.6201 4394.0332 3685.6201 L 4390.8691 3685.6201 L 4390.8691 3702.2461 z M 4574.3262 3701.4551 L 4593.9551 3701.4551 L 4593.9551 3653.335 L 4562.4023 3653.335 C 4565.4266 3659.6296 4567.9975 3666.824 4570.1074 3674.9121 C 4572.2525 3683.0354 4573.658 3691.89 4574.3262 3701.4551 z M 4390.8691 3672.0703 L 4395.293 3672.0703 C 4398.3172 3672.0703 4401.216 3672.0469 4403.9941 3672.0117 C 4406.7722 3671.9766 4408.9595 3671.7365 4410.542 3671.2793 C 4412.8629 3670.6111 4414.4997 3669.5892 4415.4492 3668.2178 C 4416.4339 3666.8815 4416.9287 3664.9577 4416.9287 3662.4609 C 4416.9287 3660.562 4416.5217 3658.8842 4415.7129 3657.4072 C 4414.9392 3655.9654 4413.5015 3654.8 4411.3916 3653.9209 C 4409.3168 3653.0418 4407.0417 3652.5791 4404.5801 3652.5439 C 4402.1185 3652.5088 4398.0455 3652.5 4392.3486 3652.5 L 4390.8691 3652.5 L 4390.8691 3672.0703 z " />
    </g>
    <g
       id="g1252"
       onclick="signClick(this,9)">
      <ellipse
         style="fill:#ff00ff;fill-opacity:1;stroke:#000000;stroke-width:11.3316;stroke-linecap:round;stroke-linejoin:round;stroke-opacity:1"
         id="path1248"
         cx="3977.2483"
         cy="-4597.5181"
         transform="scale(1,-1)"
         rx="488.03082"
         ry="461.71634" />
      <path
         id="path6"
         d="m 3987.3226,4988.4526 c -9.625,1.125 -20.3848,-1.8789 -36.8847,-8.3789 -24,-10 -30.9981,-27.9992 -67.9981,-198.999 -14,-63 -26.9931,-116.0078 -27.9931,-118.0078 -2,-1 -13.0049,61.0137 -25.0049,139.0136 -14,91.9999 -27.9942,147.9903 -38.9942,159.9903 -21.9999,24.9999 -63.001,23.0048 -101.0009,-4.9951 -29,-22 -29.9961,-25.0001 -15.9961,-45 14.9999,-22 15.9892,-21.9951 43.9892,-4.9952 16,9 30.999,14.9971 33.999,11.9971 3,-2 14.0118,-71.9991 27.0118,-153.999 22.9999,-161.9999 35.9893,-195 73.9892,-195 37,0 49.0049,29.0001 85.0049,195 17,82.9999 35.0049,153.9941 40.0049,158.9941 4,4 10.9892,-23 13.9892,-60 17,-181.9998 25.0011,-214.9981 71.001,-292.998 50,-83.9999 54.0049,-102.001 25.0049,-131.001 -25,-25 -50.002,-24.9961 -82.002,-0.9961 -26.9999,21 -67.998,18.001 -67.998,-3.999 0,-7 13.9961,-25.0088 30.9961,-39.0088 87.9999,-73.9999 219.0088,3.0021 189.0088,112.0019 -5,21 -16.0088,45.9971 -24.0088,56.9971 -20,26 -19.9931,35.0098 2.0068,35.0098 32,0 82.9942,39.9922 98.9942,76.9922 12,28.9999 12.999,45.0078 3.999,73.0078 -17,55.9999 -53.9991,84.9902 -108.999,84.9902 -26,0 -54.003,-3.998 -63.003,-7.998 -13.9999,-7 -16.9873,2 -21.9873,60 -4,52.9999 -10.0117,71.0049 -27.0117,85.0049 -12,9.9999 -20.4922,15.2519 -30.1172,16.3769 z m 139.1162,-210.3809 c 27,-2 39.0059,-10 51.0059,-30 13,-24.9999 13,-31.0049 0,-55.0048 -31,-55 -112.998,-35.9951 -112.998,25.0048 0,45 18.9922,64 61.9921,60 z m -275.6396,-465.0146 c -12.6245,0 -22.5186,-3.6807 -29.6924,-11.0303 -7.1738,-7.3144 -10.7666,-17.2876 -10.7666,-29.9121 0,-12.519 3.5928,-22.4687 10.7666,-29.8535 7.1738,-7.3496 17.0679,-11.0156 29.6924,-11.0156 12.6596,0 22.5772,3.666 29.751,11.0156 7.1738,7.3848 10.7666,17.3345 10.7666,29.8535 0,12.6245 -3.6016,22.5977 -10.8106,29.9121 -7.2089,7.3496 -17.1177,11.0303 -29.707,11.0303 z m 321.1377,0 c -12.6245,0 -22.5186,-3.6807 -29.6924,-11.0303 -7.1738,-7.3144 -10.7666,-17.2876 -10.7666,-29.9121 0,-12.519 3.5928,-22.4687 10.7666,-29.8535 7.1738,-7.3496 17.0679,-11.0156 29.6924,-11.0156 12.6596,0 22.5772,3.666 29.751,11.0156 7.1738,7.3848 10.7519,17.3345 10.7519,29.8535 0,12.6245 -3.6016,22.5977 -10.8105,29.9121 -7.209,7.3496 -17.1031,11.0303 -29.6924,11.0303 z m -239.0625,-0.1172 c -5.6265,0 -11.0406,-0.5358 -16.2451,-1.626 -5.1694,-1.0549 -9.5381,-2.2291 -13.125,-3.5302 v -16.5235 h 1.9482 c 1.5121,0.7033 2.9498,1.3973 4.3213,2.0655 1.3715,0.7033 3.2074,1.4617 5.4932,2.2705 2.1099,0.7033 4.3148,1.3182 6.6357,1.8457 2.3209,0.5274 4.8362,0.791 7.544,0.791 4.5363,0 8.1057,-0.6061 10.708,-1.8018 2.6374,-1.1956 3.955,-3.1047 3.955,-5.7422 0,-1.5473 -0.2079,-2.8327 -0.6298,-3.8525 -0.3869,-1.0198 -1.1218,-1.9539 -2.212,-2.7979 -0.9846,-0.7384 -2.4223,-1.3211 -4.3212,-1.7431 -1.899,-0.3868 -4.1741,-0.5713 -6.8116,-0.5713 h -13.9306 v -14.0332 h 14.458 c 2.6374,0 4.9213,-0.1435 6.8554,-0.4248 1.9693,-0.2813 3.6061,-0.785 4.9073,-1.5235 1.3011,-0.8088 2.2586,-1.8541 2.8564,-3.1201 0.633,-1.2659 0.9375,-2.9115 0.9375,-4.9511 0,-2.1451 -0.4158,-3.902 -1.2598,-5.2735 -0.8439,-1.3363 -2.1294,-2.5251 -3.8525,-3.5449 -1.5473,-0.9495 -3.4564,-1.6522 -5.7422,-2.1094 -2.2857,-0.4571 -4.8244,-0.6885 -7.6025,-0.6885 -2.8484,0 -5.3637,0.2636 -7.544,0.7911 -2.1451,0.5626 -4.4846,1.321 -7.0166,2.2705 -2.0044,0.7384 -4.0014,1.6169 -6.0058,2.6367 -1.9693,1.055 -3.4539,1.869 -4.4385,2.4316 h -1.8896 v -17.7246 c 4.0792,-1.5473 8.5358,-2.7771 13.3886,-3.6914 4.888,-0.9495 10.1587,-1.4209 15.8203,-1.4209 6.4354,0 11.8963,0.5593 16.3623,1.6846 4.4661,1.1605 8.3078,2.8529 11.543,5.0683 3.0946,2.11 5.4254,4.7219 6.9727,7.8516 1.5824,3.1297 2.373,6.5791 2.373,10.3418 0,3.3759 -0.5593,6.1313 -1.6846,8.2764 -1.1253,2.1802 -2.5776,4.0162 -4.3359,5.4931 -1.7231,1.4418 -3.6322,2.5516 -5.7422,3.3252 -2.0748,0.8088 -4.063,1.3681 -5.9619,1.6846 v 0.791 c 4.6067,1.0902 8.3518,3.254 11.2354,6.4893 2.9187,3.2352 4.3798,7.0916 4.3798,11.5576 0,5.9782 -2.7143,10.6339 -8.1298,13.9746 -5.3804,3.3759 -13.4532,5.0537 -24.2139,5.0537 z m -140.4053,-1.3623 c -6.0485,0 -10.5754,-1.0219 -13.5644,-3.0615 -2.9891,-2.0045 -5.8323,-5.3747 -8.5401,-10.1221 -0.633,-1.1253 -1.4236,-2.5776 -2.373,-4.3359 -0.9143,-1.7231 -1.7518,-3.2165 -2.4903,-4.4824 -1.1956,-2.0397 -2.3376,-3.7643 -3.4277,-5.1709 -1.0901,-1.3715 -2.0974,-2.4022 -3.0469,-3.1055 -0.9143,-0.6682 -1.9274,-1.1396 -3.0175,-1.4209 -1.0902,-0.2462 -2.4635,-0.4131 -4.1163,-0.4834 v 32.0215 h -20.2441 v -78.5449 h 20.2441 v 31.6992 h 4.9659 l 23.2031,-31.6992 h 24.8437 l -30.747,40.5175 c 1.1604,0.633 2.358,1.6871 3.5888,3.1641 1.2308,1.5121 2.812,4.1152 4.7461,7.8076 1.9341,3.7276 3.691,6.3307 5.2735,7.8076 1.6176,1.477 3.8693,2.2119 6.7529,2.2119 h 5.8594 v 17.0362 c -0.6682,0 -1.7135,0.023 -3.1201,0.059 -1.4067,0.07 -2.9966,0.1025 -4.7901,0.1025 z m 190.6201,-0.1611 v -78.5449 h 56.8213 v 15.1904 h -36.665 v 19.4092 h 34.0283 v 15.205 h -34.0283 v 13.5498 h 36.665 v 15.1905 z m 73.7989,0 v -78.5449 h 20.2587 v 25.5908 h 12.6124 c 5.732,0 10.5077,0.7906 14.3408,2.373 3.8682,1.5825 7.3732,3.922 10.5029,7.0166 2.2858,2.2858 4.0426,5.0968 5.2734,8.4375 1.2308,3.3759 1.8457,6.8253 1.8457,10.3418 0,4.5364 -0.8462,8.4103 -2.5341,11.6455 -1.6528,3.2353 -4.0568,5.894 -7.2217,7.9688 -2.6374,1.7231 -5.6798,3.0085 -9.126,3.8525 -3.4111,0.8792 -7.6188,1.3184 -12.6123,1.3184 z m 171.0205,0 v -78.5449 h 20.2441 v 63.3544 h 36.4014 v 15.1905 z m -377.0508,-13.1836 c 2.5319,0 4.9593,-0.4714 7.2803,-1.4209 2.3561,-0.9495 4.4321,-2.4897 6.2255,-4.5996 1.7583,-2.0396 3.1726,-4.7072 4.2627,-8.0127 1.0902,-3.3056 1.6407,-7.3142 1.6407,-12.0264 0,-4.3957 -0.4715,-8.2286 -1.4209,-11.499 -0.9495,-3.2353 -2.4106,-6.0462 -4.3799,-8.4375 -1.7583,-2.11 -3.8109,-3.6824 -6.167,-4.7022 -2.3561,-0.9846 -4.8392,-1.4795 -7.4414,-1.4795 -2.6023,0 -5.0853,0.4949 -7.4414,1.4795 -2.3561,0.9847 -4.4087,2.5249 -6.167,4.5996 -1.7583,2.0748 -3.1872,4.7423 -4.2774,8.0127 -1.0549,3.3056 -1.582,7.2908 -1.582,11.9678 0,4.5716 0.5505,8.5801 1.6406,12.0264 1.1253,3.4814 2.563,6.2045 4.3213,8.1738 1.899,2.11 3.975,3.6267 6.2256,4.541 2.2858,0.9143 4.7132,1.377 7.2803,1.377 z m 321.1377,0 c 2.5319,0 4.9447,-0.4714 7.2656,-1.4209 2.3561,-0.9495 4.4321,-2.4897 6.2256,-4.5996 1.7583,-2.0396 3.1872,-4.7072 4.2773,-8.0127 1.0902,-3.3056 1.6407,-7.3142 1.6407,-12.0264 0,-4.3957 -0.4861,-8.2286 -1.4356,-11.499 -0.9495,-3.2353 -2.3959,-6.0462 -4.3652,-8.4375 -1.7583,-2.11 -3.8256,-3.6824 -6.1817,-4.7022 -2.3561,-0.9846 -4.8245,-1.4795 -7.4267,-1.4795 -2.6023,0 -5.0853,0.4949 -7.4414,1.4795 -2.3561,0.9847 -4.4234,2.5249 -6.1817,4.5996 -1.7582,2.0748 -3.1725,4.7423 -4.2627,8.0127 -1.0549,3.3056 -1.582,7.2908 -1.582,11.9678 0,4.5716 0.5358,8.5801 1.626,12.0264 1.1253,3.4814 2.5776,6.2045 4.3359,8.1738 1.899,2.11 3.975,3.6267 6.2256,4.541 2.2858,0.9143 4.7132,1.377 7.2803,1.377 z m -94.8487,-1.4795 h 3.4864 c 3.3407,0 6.0082,-0.056 8.0127,-0.1611 2.0044,-0.07 4.057,-0.5184 6.167,-1.3624 1.5824,-0.6329 2.9791,-1.7661 4.1748,-3.3837 1.1956,-1.5825 1.7871,-3.4828 1.7871,-5.6983 0,-2.2506 -0.2958,-4.1597 -0.8936,-5.7422 -0.5626,-1.5473 -1.4967,-2.8883 -2.7978,-4.0136 -1.5122,-1.266 -3.3891,-2.1122 -5.6397,-2.5342 -2.2154,-0.422 -5.0498,-0.6299 -8.4961,-0.6299 h -5.8008 z" />
    </g>
    <g
       id="g1101"
       style="image-rendering:auto"
       onclick="signClick(this, 8)">
      <ellipse
         style="fill:#ff00ff;stroke:#000000;stroke-width:9.9975;stroke-linecap:round;stroke-linejoin:round"
         id="path1040"
         cx="3067.5186"
         cy="-4909.5698"
         rx="436.06879"
         ry="443.58722"
         transform="scale(1,-1)" />
      <path
         id="path4"
         d="M 3100.0049 5280 L 3100.0049 5250 C 3100.0049 5222 3103.0069 5220 3137.0068 5220 L 3175.0049 5220 L 3063.0029 5107.998 L 2950.0049 4995.9961 L 2917.002 5028.0029 C 2859.002 5084.0029 2815.002 5041.0029 2872.002 4983.0029 L 2903.9941 4950 L 2820 4864.9951 L 2734.9951 4780.0049 L 2757.9932 4758.0029 L 2779.9951 4735.0049 L 2865 4819.9951 L 2950.0049 4904.0039 L 2988.999 4866.0059 C 3028.999 4827.0059 3054.002 4823.0049 3067.002 4855.0049 C 3071.0019 4866.0049 3058.999 4885.0059 3033.999 4911.0059 L 2996.001 4950 L 3108.0029 5062.998 L 3220.0049 5175 L 3220.0049 5137.002 C 3220.0049 5103.002 3222.0049 5100 3250.0049 5100 L 3280.0049 5100 L 3280.0049 5190 L 3280.0049 5280 L 3190.0049 5280 L 3100.0049 5280 z M 2812.3535 4680.5273 C 2806.3753 4680.5273 2800.85 4679.5845 2795.7861 4677.6855 C 2790.7574 4675.7866 2786.541 4673.0957 2783.1299 4669.6143 C 2779.5781 4665.9922 2776.8784 4661.641 2775.0146 4656.5771 C 2773.1509 4651.5133 2772.2168 4645.8825 2772.2168 4639.6582 C 2772.2168 4632.9767 2773.1831 4627.0766 2775.1172 4621.9775 C 2777.0865 4616.8785 2779.8418 4612.6298 2783.3936 4609.2187 C 2786.9453 4605.8077 2791.1852 4603.2368 2796.1084 4601.5137 C 2801.0668 4599.7906 2806.4721 4598.9355 2812.3096 4598.9355 C 2816.2481 4598.9355 2819.3314 4599.12 2821.582 4599.5068 C 2823.8326 4599.8937 2826.2513 4600.4529 2828.8184 4601.1914 C 2830.7876 4601.7541 2832.6646 4602.4246 2834.458 4603.1982 C 2836.2515 4603.9719 2838.1284 4604.8093 2840.0977 4605.6885 L 2840.0977 4624.4531 L 2837.9883 4624.4531 C 2837.0388 4623.6091 2835.8324 4622.6107 2834.3555 4621.4502 C 2832.8785 4620.2897 2831.2739 4619.2034 2829.5508 4618.1836 C 2827.5112 4616.9176 2825.2829 4615.9191 2822.8564 4615.1807 C 2820.4652 4614.4422 2818.0378 4614.0674 2815.5762 4614.0674 C 2813.0091 4614.0674 2810.406 4614.4744 2807.7686 4615.2832 C 2805.1311 4616.1272 2802.7359 4617.5092 2800.5908 4619.4434 C 2798.4809 4621.3423 2796.724 4623.9454 2795.3174 4627.251 C 2793.9459 4630.5566 2793.2666 4634.6764 2793.2666 4639.5996 C 2793.2666 4644.3118 2793.8903 4648.3204 2795.1563 4651.626 C 2796.4574 4654.9316 2798.1498 4657.5903 2800.2246 4659.5947 C 2802.4049 4661.6695 2804.7767 4663.1394 2807.3438 4664.0186 C 2809.9108 4664.9329 2812.6252 4665.3955 2815.4736 4665.3955 C 2818.0407 4665.3955 2820.4447 4665.0119 2822.6953 4664.2383 C 2824.9459 4663.4646 2827.0307 4662.5071 2828.9648 4661.3818 C 2830.8638 4660.2565 2832.5562 4659.1146 2834.0332 4657.9541 C 2835.5453 4656.7936 2836.7986 4655.7951 2837.7832 4654.9512 L 2840.0977 4654.9512 L 2840.0977 4673.9941 C 2838.6559 4674.6975 2836.9781 4675.4558 2835.0439 4676.2646 C 2833.145 4677.1086 2831.0133 4677.8524 2828.6572 4678.5205 C 2826.4066 4679.1183 2823.947 4679.6044 2821.2744 4679.9561 C 2818.637 4680.3429 2815.6591 4680.5273 2812.3535 4680.5273 z M 2847.1143 4679.0039 L 2847.1143 4663.8135 L 2871.6504 4663.8135 L 2871.6504 4600.459 L 2891.8945 4600.459 L 2891.8945 4663.8135 L 2916.4307 4663.8135 L 2916.4307 4679.0039 L 2847.1143 4679.0039 z M 2928.6182 4679.0039 L 2928.6182 4600.459 L 2948.877 4600.459 L 2948.877 4626.0498 L 2961.4746 4626.0498 C 2967.2066 4626.0498 2971.997 4626.8404 2975.8301 4628.4229 C 2979.6983 4630.0053 2983.1886 4632.3302 2986.3184 4635.4248 C 2988.6041 4637.7106 2990.361 4640.5362 2991.5918 4643.877 C 2992.8226 4647.2529 2993.4375 4650.6875 2993.4375 4654.2041 C 2993.4375 4658.7405 2992.5913 4662.629 2990.9033 4665.8643 C 2989.2505 4669.0995 2986.8466 4671.7582 2983.6816 4673.833 C 2981.0442 4675.5561 2978.0019 4676.8416 2974.5557 4677.6855 C 2971.1446 4678.5647 2966.9515 4679.0039 2961.958 4679.0039 L 2928.6182 4679.0039 z M 3007.793 4679.0039 L 3007.793 4600.459 L 3064.5996 4600.459 L 3064.5996 4615.6494 L 3027.9346 4615.6494 L 3027.9346 4635.0586 L 3061.9629 4635.0586 L 3061.9629 4650.249 L 3027.9346 4650.249 L 3027.9346 4663.8135 L 3064.5996 4663.8135 L 3064.5996 4679.0039 L 3007.793 4679.0039 z M 3091.2451 4679.0039 C 3091.1396 4673.4477 3091.0049 4668.5051 3090.8643 4664.1797 C 3090.7588 4659.8895 3090.6065 4655.9131 3090.3955 4652.2559 C 3089.9032 4643.0424 3089.1448 4635.8715 3088.125 4630.7373 C 3087.1404 4625.6383 3085.3191 4621.9167 3082.6465 4619.5605 C 3081.908 4618.9276 3081.0618 4618.4883 3080.1123 4618.2422 C 3079.1628 4617.996 3077.7017 4617.8613 3075.7324 4617.8613 C 3075.2049 4617.8613 3074.7335 4617.8848 3074.3115 4617.9199 C 3073.9247 4617.9551 3073.5733 4617.9873 3073.2568 4618.0225 L 3072.5098 4618.0225 L 3072.5098 4600.459 C 3073.0373 4600.3887 3074.2348 4600.2774 3076.0986 4600.1367 C 3077.9976 4599.9961 3079.8335 4599.9316 3081.5918 4599.9316 C 3084.4754 4599.9316 3087.1985 4600.4265 3089.7656 4601.4111 C 3092.3327 4602.3958 3094.4732 4603.7134 3096.1963 4605.3662 C 3097.5326 4606.6322 3098.8737 4608.269 3100.21 4610.2734 C 3101.5463 4612.2779 3102.8083 4614.8575 3104.0039 4618.0225 C 3105.1644 4621.1522 3106.1951 4625.1286 3107.1094 4629.9463 C 3108.0588 4634.7992 3108.7616 4640.7725 3109.2188 4647.876 C 3109.4297 4651.1112 3109.5967 4653.7143 3109.7021 4655.6836 C 3109.8076 4657.6529 3109.9511 4660.3672 3110.127 4663.8135 L 3132.5977 4663.8135 L 3132.5977 4600.459 L 3152.8418 4600.459 L 3152.8418 4679.0039 L 3091.2451 4679.0039 z M 3172.8955 4679.0039 L 3172.8955 4600.459 L 3229.7021 4600.459 L 3229.7021 4615.6494 L 3193.0371 4615.6494 L 3193.0371 4635.0586 L 3227.0654 4635.0586 L 3227.0654 4650.249 L 3193.0371 4650.249 L 3193.0371 4663.8135 L 3229.7021 4663.8135 L 3229.7021 4679.0039 L 3172.8955 4679.0039 z M 3246.6943 4679.0039 L 3246.6943 4600.459 L 3306.0791 4600.459 L 3306.0791 4582.4268 L 3324.6973 4582.4268 L 3324.6973 4615.4883 L 3316.9482 4615.4883 L 3316.9482 4679.0039 L 3296.6895 4679.0039 L 3296.6895 4615.4883 L 3266.9385 4615.4883 L 3266.9385 4679.0039 L 3246.6943 4679.0039 z M 2948.877 4664.3408 L 2952.3486 4664.3408 C 2955.6894 4664.3408 2958.3715 4664.2852 2960.376 4664.1797 C 2962.3804 4664.1094 2964.433 4663.6467 2966.543 4662.8027 C 2968.1254 4662.1698 2969.5075 4661.0512 2970.7031 4659.4336 C 2971.8988 4657.8511 2972.5049 4655.9508 2972.5049 4653.7354 C 2972.5049 4651.4847 2972.2091 4649.5756 2971.6113 4647.9932 C 2971.0487 4646.4459 2970.1146 4645.1048 2968.8135 4643.9795 C 2967.3013 4642.7135 2965.4098 4641.8673 2963.1592 4641.4453 C 2960.9437 4641.0233 2958.124 4640.8154 2954.6777 4640.8154 L 2948.877 4640.8154 L 2948.877 4664.3408 z "
         style="fill:#1a1a1a;fill-opacity:1" />
    </g>
    <g
       id="g1349"
       transform="translate(872.13758,-7.51845)"
       onclick="signClick(this,11)">
      <ellipse
         style="fill:#ff00ff;fill-opacity:1;stroke:#000000;stroke-width:9.9975;stroke-linecap:round;stroke-linejoin:round;stroke-opacity:1"
         id="path1314-8"
         cx="4105.0615"
         cy="-3041.2041"
         transform="scale(1,-1)"
         rx="428.55035"
         ry="413.51352" />
      <path
         id="path20"
         d="m 3947.1548,3360.0737 c -5,0 -16.997,-8.9951 -26.997,-19.9951 -18,-20 -17.9971,-21.0079 3.0029,-43.0078 24,-26 56.9951,-96.9942 64.9951,-143.9942 l 6.0059,-32.0068 -52.002,-3.0029 c -47.9999,-3 -52.0019,-4.9932 -52.0019,-27.9932 0,-23 3.9981,-24.9932 52.998,-27.9932 l 52.9981,-3.0029 -5.9913,-32.0068 c -9.9999,-44 -40.0097,-112.9942 -65.0097,-143.9942 l -20.9912,-26.997 20.9912,-20.0098 21.0058,-20.9912 21.0059,24.9902 c 29,35 63.9932,109.0001 72.9932,150 13.9999,70.9999 12.9951,70.0049 64.9951,70.0049 51.9999,0 51.0098,0.995 65.0097,-70.0049 9,-40.9999 43.9932,-115 72.9932,-150 l 21.0059,-24.9902 22.0019,22.0019 22.002,20.9912 -26.001,33.9991 c -26,32.9999 -50.0108,90.0059 -61.0107,141.0058 -6,26 -5.001,26.9971 33.999,26.9971 37.9999,0 40.0049,2 40.0049,30 0,28 -2.005,30 -40.0049,30 -39,0 -38.999,0 -33.999,33.0029 8.9999,47 42.0058,117.9942 66.0058,143.9942 21,21.9999 21.0029,23.0078 3.0029,43.0078 -9.9999,11 -21.997,19.9951 -26.997,19.9951 -23,0 -82.0118,-123.0069 -102.0117,-212.0068 -6,-26 -10.0011,-27.9932 -56.001,-27.9932 -46,0 -49.9864,1.9932 -55.9864,27.9932 -19.9999,88.9999 -79.0117,212.0068 -102.0117,212.0068 z m -27.5537,-568.1982 v -78.545 h 20.2588 v 25.5909 h 12.5977 c 5.732,0 10.5224,0.7905 14.3554,2.373 3.8683,1.5825 7.3586,3.922 10.4883,7.0166 2.2858,2.2858 4.0427,5.0968 5.2735,8.4375 1.2308,3.3759 1.8457,6.8252 1.8457,10.3418 0,4.5364 -0.8316,8.4249 -2.5196,11.6602 -1.6528,3.2352 -4.0714,5.8793 -7.2363,7.9541 -2.6374,1.7231 -5.6797,3.0085 -9.126,3.8525 -3.4111,0.8791 -7.6041,1.3184 -12.5976,1.3184 z m 79.1748,0 v -78.545 h 36.2403 c 4.9232,0 9.1074,0.4861 12.5537,1.4356 3.4814,0.9846 6.8194,2.7503 10.0195,5.3174 2.5319,2.0396 4.5201,4.6661 5.9619,7.8662 1.477,3.2352 2.2119,6.7724 2.2119,10.6054 0,3.7979 -0.6149,7.2882 -1.8457,10.4883 -1.2308,3.2353 -3.1955,5.9174 -5.9033,8.0274 -2.6726,2.1099 -5.7705,3.5476 -9.2871,4.3213 -3.4814,0.8088 -7.9526,1.2158 -13.4033,1.2158 h -16.2891 v 29.2676 z m 74.4727,0 v -78.545 h 20.2588 v 78.545 z m 40.3125,0 v -78.545 h 36.2256 c 4.9232,0 9.1074,0.4861 12.5537,1.4356 3.4814,0.9846 6.8341,2.7503 10.0342,5.3174 2.5319,2.0396 4.5201,4.6661 5.9619,7.8662 1.4769,3.2352 2.2119,6.7724 2.2119,10.6054 0,3.7979 -0.6149,7.2882 -1.8457,10.4883 -1.2308,3.2353 -3.2102,5.9174 -5.918,8.0274 -2.6726,2.1099 -5.7471,3.5476 -9.2285,4.3213 -3.4814,0.8088 -7.9614,1.2158 -13.4473,1.2158 h -16.4062 v 14.0771 h 40.8838 v 15.1905 z m 81.8554,0 v -78.545 h 36.2403 c 4.9232,0 9.1075,0.4861 12.5537,1.4356 3.4814,0.9846 6.8194,2.7503 10.0195,5.3174 2.532,2.0396 4.5201,4.6661 5.9619,7.8662 1.477,3.2352 2.2266,6.7724 2.2266,10.6054 0,3.7979 -0.6295,7.2882 -1.8603,10.4883 -1.2308,3.2353 -3.1956,5.9174 -5.9034,8.0274 -2.6726,2.1099 -5.7705,3.5476 -9.2871,4.3213 -3.4814,0.8088 -7.938,1.2158 -13.3887,1.2158 h -16.3037 v 29.2676 z m 74.4874,0 v -78.545 h 20.2587 v 78.545 z m -330.044,-14.6631 h 3.4717 c 3.3407,0 6.0229,-0.056 8.0273,-0.1612 2.0045,-0.07 4.0571,-0.5183 6.167,-1.3623 1.5825,-0.6329 2.9645,-1.7661 4.1602,-3.3838 1.1956,-1.5824 1.8017,-3.4828 1.8017,-5.6982 0,-2.2506 -0.2957,-4.1597 -0.8935,-5.7422 -0.5627,-1.5473 -1.4967,-2.8884 -2.7979,-4.0137 -1.5121,-1.2659 -3.4037,-2.1121 -5.6543,-2.5341 -2.2154,-0.422 -5.0352,-0.6299 -8.4814,-0.6299 h -5.8008 z m 79.1748,-29.2237 h 12.7588 c 2.9188,0 5.2027,-0.2723 6.8555,-0.8349 1.6528,-0.5627 2.9616,-1.3211 3.9111,-2.2705 0.9495,-0.9847 1.5644,-2.0622 1.8457,-3.2227 0.2813,-1.1605 0.4248,-2.3903 0.4248,-3.6914 0,-1.4418 -0.2782,-2.7594 -0.8057,-3.9551 -0.4923,-1.1604 -1.2038,-2.1589 -2.1533,-3.0029 -0.9494,-0.8791 -2.3227,-1.6053 -4.1162,-2.168 -1.7583,-0.5626 -3.7465,-0.8496 -5.9619,-0.8496 h -12.7588 z m 114.668,0 h 12.876 c 2.9187,0 5.2026,-0.2723 6.8554,-0.8349 1.6528,-0.5627 2.947,-1.3211 3.8965,-2.2705 0.9495,-0.9847 1.5644,-2.0622 1.8457,-3.2227 0.2813,-1.1605 0.4248,-2.3903 0.4248,-3.6914 0,-1.4418 -0.2635,-2.7594 -0.791,-3.9551 -0.4923,-1.1604 -1.2038,-2.1589 -2.1533,-3.0029 -0.9495,-0.8791 -2.3228,-1.6053 -4.1162,-2.168 -1.7583,-0.5626 -3.7465,-0.8496 -5.9619,-0.8496 h -12.876 z m 81.9726,0 h 12.7735 c 2.9187,0 5.2027,-0.2723 6.8554,-0.8349 1.6528,-0.5627 2.9471,-1.3211 3.8965,-2.2705 0.9495,-0.9847 1.5644,-2.0622 1.8457,-3.2227 0.2814,-1.1605 0.4248,-2.3903 0.4248,-3.6914 0,-1.4418 -0.2635,-2.7594 -0.791,-3.9551 -0.4923,-1.1604 -1.2185,-2.1589 -2.1679,-3.0029 -0.9495,-0.8791 -2.3228,-1.6053 -4.1163,-2.168 -1.7582,-0.5626 -3.7318,-0.8496 -5.9472,-0.8496 h -12.7735 z"
         inkscape:label="path20" />
    </g>
    <g
       id="g1546"
       onclick="signClick(this,5)">
      <ellipse
         style="fill:#ff00ff;fill-opacity:1;stroke:#000000;stroke-width:10.507;stroke-linecap:round;stroke-linejoin:round;stroke-opacity:1"
         id="path1542"
         cx="1199.1892"
         cy="-3029.926"
         transform="scale(1,-1)"
         rx="426.05978"
         ry="414.78214" />
      <path
         id="path22"
         d="M 1437.9932 3310.0049 C 1430.9932 3309.0049 1411.9961 3298.9961 1395.9961 3285.9961 C 1367.9961 3261.9961 1366.9971 3262.001 1346.9971 3281.001 C 1313.9971 3311.0009 1266.0058 3315.0019 1221.0059 3292.002 C 1187.0059 3274.002 1180 3273 1170 3285 C 1149 3310 1094.0068 3313.998 1052.0068 3292.998 C 1015.0069 3274.9981 1012.9941 3275.002 983.99414 3292.002 C 948.99418 3313.0019 926.00093 3313.9941 881.00098 3293.9941 C 848.00101 3279.9942 848.0049 3278.9951 865.00488 3259.9951 C 879.00487 3243.9951 890.99612 3241.0059 915.99609 3246.0059 C 940.99607 3250.0059 952.99416 3247.0058 968.99414 3231.0059 C 988.99412 3211.0059 990 3198.994 990 3053.9941 L 990 2898.999 L 1017.9932 2902.002 L 1045.0049 2905.0049 L 1047.9932 3060 C 1049.9932 3203.9999 1052.0059 3215.9981 1071.0059 3232.998 C 1098.0058 3254.998 1115 3254.9951 1140 3229.9951 C 1158 3211.9951 1159.9951 3197.0047 1159.9951 3055.0049 L 1159.9951 2899.9951 L 1189.9951 2899.9951 L 1219.9951 2899.9951 L 1219.9951 3060 L 1219.9951 3220.0049 L 1245.9961 3236.9971 C 1269.9961 3251.9971 1274.9942 3252.0039 1298.9941 3239.0039 C 1323.9941 3225.0039 1325.0068 3220.9931 1322.0068 3147.9932 C 1318.0068 3067.9932 1332.9961 3014.9941 1380.9961 2948.9941 L 1402.998 2917.998 L 1361.9971 2876.9971 L 1320.9961 2835 L 1341.0059 2811.0059 L 1361.001 2786.9971 L 1402.998 2827.998 L 1444.9951 2868.999 L 1477.998 2835 C 1514.998 2795 1520.9932 2792.9932 1542.9932 2817.9932 C 1558.9931 2834.9931 1557.0058 2838.9942 1521.0059 2873.9941 L 1481.9971 2912.0068 L 1515.9961 2978.9941 C 1577.996 3098.994 1572.0048 3189.0011 1495.0049 3266.001 C 1470.0049 3290.001 1444.9932 3310.0049 1437.9932 3310.0049 z M 1441.4941 3232.998 C 1450.9941 3230.998 1460.9951 3221.0019 1474.9951 3202.002 C 1502.9951 3164.002 1501.9961 3080.0029 1470.9961 3018.0029 C 1457.9961 2991.003 1444.9961 2970 1440.9961 2970 C 1429.9961 2970 1392.9961 3041.001 1380.9961 3086.001 C 1367.9961 3134.0009 1378.9961 3182.0059 1410.9961 3216.0059 C 1422.9961 3229.0058 1431.9942 3234.998 1441.4941 3232.998 z M 1101.8848 2770.7959 C 1101.8848 2759.5004 1100.8854 2748.8932 1098.8672 2738.9648 C 1096.8815 2729.0365 1094.0006 2720.1123 1090.2246 2712.2021 L 1084.7021 2712.2021 L 1084.7021 2681.3965 L 1101.9434 2681.3965 L 1101.9434 2698.3447 L 1146.0791 2698.3447 L 1146.0791 2681.3965 L 1163.3203 2681.3965 L 1163.3203 2712.2021 L 1156.1426 2712.2021 L 1156.1426 2770.7959 L 1101.8848 2770.7959 z M 1176.0645 2770.7959 L 1176.0645 2698.0957 L 1228.6523 2698.0957 L 1228.6523 2712.1582 L 1194.7119 2712.1582 L 1194.7119 2730.1318 L 1226.2061 2730.1318 L 1226.2061 2744.1943 L 1194.7119 2744.1943 L 1194.7119 2756.7334 L 1228.6523 2756.7334 L 1228.6523 2770.7959 L 1176.0645 2770.7959 z M 1244.3701 2770.7959 L 1244.3701 2698.0957 L 1276.1133 2698.0957 C 1281.3867 2698.0957 1285.7324 2698.5466 1289.1504 2699.458 C 1292.6009 2700.3695 1295.7487 2701.9092 1298.6133 2704.0576 C 1301.0872 2705.8805 1303.029 2708.1755 1304.4287 2710.9424 C 1305.861 2713.7093 1306.582 2716.8457 1306.582 2720.3613 C 1306.582 2725.2116 1305.1774 2729.1178 1302.3779 2732.0801 C 1299.611 2735.0423 1295.8512 2736.9954 1291.0986 2737.9395 L 1291.0986 2738.335 C 1294.484 2739.8324 1297.1094 2741.9059 1298.9648 2744.5752 C 1300.8203 2747.277 1301.748 2750.3906 1301.748 2753.9062 C 1301.748 2756.9336 1301.0644 2759.6191 1299.6973 2761.9629 C 1298.3626 2764.3392 1296.3118 2766.2321 1293.5449 2767.6318 C 1290.8757 2768.9665 1288.1641 2769.8193 1285.4297 2770.21 C 1282.7279 2770.6006 1278.457 2770.7959 1272.5977 2770.7959 L 1244.3701 2770.7959 z M 1339.292 2770.7959 L 1312.4414 2698.0957 L 1331.3379 2698.0957 L 1336.3623 2712.7881 L 1363.3154 2712.7881 L 1368.3398 2698.0957 L 1387.7344 2698.0957 L 1360.8691 2770.7959 L 1339.292 2770.7959 z M 1263.0176 2757.4658 L 1264.7754 2757.4658 C 1268.4538 2757.4658 1271.3119 2757.443 1273.3301 2757.3779 C 1275.3809 2757.3454 1277.0898 2757.0638 1278.457 2756.543 C 1279.987 2755.957 1281.0352 2755.0667 1281.6211 2753.8623 C 1282.2396 2752.6579 1282.5586 2751.4486 1282.5586 2750.2441 C 1282.5586 2748.6816 1282.2884 2747.3031 1281.7676 2746.0986 C 1281.2467 2744.9268 1280.1497 2743.9616 1278.457 2743.2129 C 1277.2526 2742.6595 1275.6038 2742.3291 1273.5205 2742.2314 C 1271.4372 2742.1338 1268.9095 2742.085 1265.9473 2742.085 L 1263.0176 2742.085 L 1263.0176 2757.4658 z M 1119.2285 2756.7334 L 1137.3926 2756.7334 L 1137.3926 2712.2021 L 1108.1836 2712.2021 C 1110.9831 2718.029 1113.3643 2724.6957 1115.3174 2732.1826 C 1117.3031 2739.7021 1118.61 2747.8793 1119.2285 2756.7334 z M 1349.8389 2752.1924 L 1358.7744 2726.1182 L 1340.9033 2726.1182 L 1349.8389 2752.1924 z M 1263.0176 2729.5459 L 1267.1191 2729.5459 C 1269.9186 2729.5459 1272.6042 2729.5199 1275.1758 2729.4873 C 1277.7474 2729.4548 1279.7754 2729.2367 1281.2402 2728.8135 C 1283.3887 2728.195 1284.9023 2727.2412 1285.7813 2725.9717 C 1286.6927 2724.7347 1287.1436 2722.9655 1287.1436 2720.6543 C 1287.1436 2718.8965 1286.7643 2717.334 1286.0156 2715.9668 C 1285.2995 2714.6322 1283.9697 2713.5579 1282.0166 2712.7441 C 1280.096 2711.9303 1277.9964 2711.5023 1275.7178 2711.4697 C 1273.4391 2711.4372 1269.668 2711.4258 1264.3945 2711.4258 L 1263.0176 2711.4258 L 1263.0176 2729.5459 z " />
    </g>
    <g
       id="g1560"
       onclick="signClick(this,6)">
      <circle
         style="fill:#ff00ff;fill-opacity:1;stroke:#000000;stroke-width:9.9975;stroke-linecap:round;stroke-linejoin:round;stroke-opacity:1"
         id="path1556"
         cx="1349.5577"
         cy="-3988.5256"
         transform="scale(1,-1)"
         r="400" />
      <path
         id="path12"
         d="M 1372.002 4245.3809 C 1347.502 4248.0684 1322.0018 4245.2559 1297.002 4236.0059 C 1276.002 4228.0059 1248.998 4214.0029 1237.998 4203.0029 C 1210.9982 4178.0031 1180.0049 4115.9951 1180.0049 4084.9951 C 1180.0049 4061.9951 1176.9951 4060.0049 1129.9951 4060.0049 C 1080.9953 4060.0049 1080 4059.0049 1080 4030.0049 L 1080 4000.0049 L 1165.0049 4000.0049 L 1251.0059 4000.0049 L 1244.0039 4049.0039 C 1239.0039 4090.0039 1241.0039 4104.9943 1259.0039 4133.9941 C 1329.0037 4246.9939 1506.0018 4157.0047 1462.002 4030.0049 L 1451.001 4000.0049 L 1541.001 4000.0049 L 1630.0049 4000.0049 L 1630.0049 4030.0049 C 1630.0049 4059.0049 1629.0057 4060.0049 1581.0059 4060.0049 C 1533.0059 4060.0049 1532.0049 4060.0031 1525.0049 4098.0029 C 1510.0049 4179.7527 1445.5018 4237.3184 1372.002 4245.3809 z M 1080 3910.0049 L 1080 3885 L 1080 3859.9951 L 1338.0029 3858.999 C 1479.0027 3858.999 1602.9982 3857 1612.998 3855 C 1625.998 3853 1630.0049 3859.001 1630.0049 3881.001 L 1630.0049 3910.0049 L 1354.9951 3910.0049 L 1080 3910.0049 z M 1374.5801 3839.8389 C 1369.0462 3839.8389 1363.9453 3838.96 1359.2578 3837.2021 C 1354.6029 3835.4443 1350.6966 3832.9541 1347.5391 3829.7314 C 1344.2513 3826.3786 1341.735 3822.3486 1340.0098 3817.6611 C 1338.2845 3812.9736 1337.4316 3807.7637 1337.4316 3802.002 C 1337.4316 3795.8171 1338.3219 3790.3597 1340.1123 3785.6396 C 1341.9352 3780.9196 1344.4857 3776.9759 1347.7734 3773.8184 C 1351.0612 3770.6608 1354.9935 3768.2943 1359.5508 3766.6992 C 1364.1406 3765.1042 1369.1325 3764.2969 1374.5361 3764.2969 C 1378.182 3764.2969 1381.0514 3764.4808 1383.1348 3764.8389 C 1385.2181 3765.1969 1387.4382 3765.7227 1389.8145 3766.4062 C 1391.6374 3766.9271 1393.3838 3767.5358 1395.0439 3768.252 C 1396.7041 3768.9681 1398.4359 3769.738 1400.2588 3770.5518 L 1400.2588 3787.9395 L 1398.3105 3787.9395 C 1397.4316 3787.1582 1396.3086 3786.2305 1394.9414 3785.1562 C 1393.5742 3784.082 1392.098 3783.068 1390.5029 3782.124 C 1388.6149 3780.9522 1386.5527 3780.0244 1384.3066 3779.3408 C 1382.0931 3778.6572 1379.847 3778.3154 1377.5684 3778.3154 C 1375.1921 3778.3154 1372.7734 3778.6947 1370.332 3779.4434 C 1367.8906 3780.2246 1365.682 3781.5055 1363.6963 3783.2959 C 1361.7432 3785.0537 1360.1204 3787.4577 1358.8184 3790.5176 C 1357.5488 3793.5775 1356.9141 3797.3861 1356.9141 3801.9434 C 1356.9141 3806.3053 1357.5 3810.0163 1358.6719 3813.0762 C 1359.8763 3816.1361 1361.4388 3818.5889 1363.3594 3820.4443 C 1365.3776 3822.3649 1367.5749 3823.7321 1369.9512 3824.5459 C 1372.3275 3825.3922 1374.8291 3825.8203 1377.4658 3825.8203 C 1379.8421 3825.8203 1382.0768 3825.4671 1384.1602 3824.751 C 1386.2435 3824.0348 1388.1706 3823.1559 1389.9609 3822.1143 C 1391.7187 3821.0726 1393.2813 3820.0098 1394.6484 3818.9355 C 1396.0482 3817.8613 1397.2087 3816.9336 1398.1201 3816.1523 L 1400.2588 3816.1523 L 1400.2588 3833.7744 C 1398.9242 3834.4255 1397.3763 3835.1351 1395.5859 3835.8838 C 1393.8281 3836.665 1391.849 3837.36 1389.668 3837.9785 C 1387.5846 3838.5319 1385.3157 3838.9714 1382.8418 3839.2969 C 1380.4004 3839.6549 1377.64 3839.8389 1374.5801 3839.8389 z M 1197.1875 3838.418 L 1197.1875 3765.7178 L 1228.9307 3765.7178 C 1234.2041 3765.7178 1238.5498 3766.1686 1241.9678 3767.0801 C 1245.4183 3767.9915 1248.5807 3769.5313 1251.4453 3771.6797 C 1253.9193 3773.5026 1255.8464 3775.7975 1257.2461 3778.5645 C 1258.6784 3781.3314 1259.3994 3784.4678 1259.3994 3787.9834 C 1259.3994 3792.8336 1257.9948 3796.7399 1255.1953 3799.7021 C 1252.4284 3802.6644 1248.6686 3804.6175 1243.916 3805.5615 L 1243.916 3805.957 C 1247.3014 3807.4544 1249.9268 3809.528 1251.7822 3812.1973 C 1253.6377 3814.8991 1254.5654 3818.0127 1254.5654 3821.5283 C 1254.5654 3824.5557 1253.8818 3827.2412 1252.5146 3829.585 C 1251.18 3831.9613 1249.1292 3833.8395 1246.3623 3835.2393 C 1243.693 3836.5739 1240.9961 3837.4414 1238.2617 3837.832 C 1235.5599 3838.2227 1231.2744 3838.418 1225.415 3838.418 L 1197.1875 3838.418 z M 1273.3594 3838.418 L 1273.3594 3765.7178 L 1325.9473 3765.7178 L 1325.9473 3779.7803 L 1292.0215 3779.7803 L 1292.0215 3797.7539 L 1323.5156 3797.7539 L 1323.5156 3811.8018 L 1292.0215 3811.8018 L 1292.0215 3824.3555 L 1325.9473 3824.3555 L 1325.9473 3838.418 L 1273.3594 3838.418 z M 1414.0283 3838.418 L 1414.0283 3765.7178 L 1447.5732 3765.7178 C 1452.1305 3765.7178 1456.014 3766.1572 1459.2041 3767.0361 C 1462.4267 3767.9476 1465.5143 3769.5964 1468.4766 3771.9727 C 1470.8203 3773.8607 1472.6644 3776.2761 1473.999 3779.2383 C 1475.3662 3782.2331 1476.0498 3785.5046 1476.0498 3789.0527 C 1476.0498 3792.5683 1475.4753 3795.8171 1474.3359 3798.7793 C 1473.1966 3801.7741 1471.3786 3804.2383 1468.8721 3806.1914 C 1466.3981 3808.1445 1463.5286 3809.4743 1460.2734 3810.1904 C 1457.0508 3810.9391 1452.9118 3811.3184 1447.8662 3811.3184 L 1432.7783 3811.3184 L 1432.7783 3838.418 L 1414.0283 3838.418 z M 1482.9785 3838.418 L 1482.9785 3765.7178 L 1501.7285 3765.7178 L 1501.7285 3838.418 L 1482.9785 3838.418 z M 1215.8496 3825.0879 L 1217.6074 3825.0879 C 1221.2858 3825.0879 1224.1292 3825.0505 1226.1475 3824.9854 C 1228.1982 3824.9528 1229.9072 3824.6859 1231.2744 3824.165 C 1232.8044 3823.5791 1233.8672 3822.6741 1234.4531 3821.4697 C 1235.0716 3820.2653 1235.376 3819.0706 1235.376 3817.8662 C 1235.376 3816.3037 1235.1204 3814.9105 1234.5996 3813.7061 C 1234.0788 3812.5342 1232.9671 3811.5837 1231.2744 3810.835 C 1230.07 3810.2816 1228.4212 3809.9512 1226.3379 3809.8535 C 1224.2546 3809.7559 1221.7415 3809.707 1218.7793 3809.707 L 1215.8496 3809.707 L 1215.8496 3825.0879 z M 1432.7783 3797.7979 L 1444.5996 3797.7979 C 1447.3014 3797.7979 1449.4124 3797.5423 1450.9424 3797.0215 C 1452.4723 3796.5007 1453.6816 3795.791 1454.5605 3794.9121 C 1455.4395 3794.0007 1456.014 3793.0127 1456.2744 3791.9385 C 1456.5348 3790.8643 1456.6553 3789.7298 1456.6553 3788.5254 C 1456.6553 3787.1908 1456.4111 3785.97 1455.9229 3784.8633 C 1455.4671 3783.7891 1454.8096 3782.8613 1453.9307 3782.0801 C 1453.0518 3781.2663 1451.7822 3780.5941 1450.1221 3780.0732 C 1448.4945 3779.5524 1446.6504 3779.2969 1444.5996 3779.2969 L 1432.7783 3779.2969 L 1432.7783 3797.7979 z M 1215.8496 3797.168 L 1219.9512 3797.168 C 1222.7506 3797.168 1225.4362 3797.1419 1228.0078 3797.1094 C 1230.5794 3797.0768 1232.5928 3796.8587 1234.0576 3796.4355 C 1236.206 3795.8171 1237.7197 3794.8633 1238.5986 3793.5937 C 1239.5101 3792.3568 1239.9609 3790.5876 1239.9609 3788.2764 C 1239.9609 3786.5186 1239.5964 3784.956 1238.8477 3783.5889 C 1238.1315 3782.2542 1236.7871 3781.18 1234.834 3780.3662 C 1232.9134 3779.5524 1230.8138 3779.1243 1228.5352 3779.0918 C 1226.2565 3779.0592 1222.4853 3779.0479 1217.2119 3779.0479 L 1215.8496 3779.0479 L 1215.8496 3797.168 z " />
    </g>
    <g
       id="g1573"
       onclick="signClick(this,7)">
      <ellipse
         style="fill:#ff00ff;fill-opacity:1;stroke:#000000;stroke-width:11.2455;stroke-linecap:round;stroke-linejoin:round;stroke-opacity:1"
         id="path1569"
         cx="2071.3638"
         cy="-4563.6855"
         transform="scale(1,-1)"
         rx="463.28262"
         ry="436.96814" />
      <path
         id="path8"
         d="M 1976.6309 4889.2529 C 1960.5059 4889.7529 1945.0058 4885 1926.0059 4875 C 1899.0059 4861 1891.9931 4861 1857.9932 4875 C 1814.9932 4892 1794.9941 4892.9951 1763.9941 4879.9951 C 1731.9942 4866.9951 1728.0049 4854.9951 1750.0049 4834.9951 C 1762.0049 4823.9951 1775.9951 4821.0049 1789.9951 4825.0049 C 1802.9951 4829.0049 1820.9951 4824.9961 1834.9951 4815.9961 C 1859.9951 4799.9961 1860 4797.995 1860 4639.9951 L 1860 4480.0049 L 1890 4480.0049 L 1920 4480.0049 L 1920 4635 C 1920 4776.9999 1921.9951 4792.0049 1939.9951 4810.0049 C 1964.9951 4835.0049 1992.003 4835.997 2013.0029 4811.9971 C 2026.0029 4796.9971 2030.002 4764.995 2032.002 4639.9951 L 2035.0049 4485 L 2062.998 4481.9971 L 2089.9951 4478.9941 L 2089.9951 4634.0039 C 2089.9951 4777.0038 2092.0049 4792.0049 2110.0049 4810.0049 C 2134.0049 4834.0049 2162.9942 4836.0039 2183.9941 4814.0039 C 2196.9941 4802.0039 2200.001 4771.0018 2201.001 4657.002 C 2202.001 4579.002 2202.001 4509.0068 2201.001 4502.0068 C 2197.001 4474.0069 2222.9961 4419 2250.9961 4395 C 2334.996 4325.0001 2440.0049 4398.0011 2440.0049 4526.001 C 2440.0049 4573.0009 2440 4573.0049 2460 4555.0049 C 2480 4537.0049 2481.0049 4537.001 2500.0049 4556.001 C 2520.0049 4575.001 2520.0068 4575.9932 2462.0068 4632.9932 L 2403.999 4690.0049 L 2347.002 4631.9971 C 2290.002 4573.9971 2289 4574.0049 2310 4555.0049 C 2329 4538.0049 2330.9981 4537.9981 2347.998 4552.998 C 2375.998 4577.998 2380.0049 4574.0019 2380.0049 4522.002 C 2380.0049 4462.002 2359.0048 4429.9951 2320.0049 4429.9951 C 2267.0049 4429.9951 2260.0049 4454.0051 2260.0049 4645.0049 C 2260.0049 4831.0047 2256.0048 4846 2200.0049 4875 C 2162.0049 4895 2132.0009 4893.997 2096.001 4871.9971 C 2067.001 4854.9971 2065.0058 4854.9971 2031.0059 4871.9971 C 2009.5059 4882.9971 1992.7558 4888.7529 1976.6309 4889.2529 z M 1973.8184 4343.6719 C 1962.1322 4343.6719 1952.9638 4340.2653 1946.3232 4333.4619 C 1939.6826 4326.6911 1936.3623 4317.4625 1936.3623 4305.7764 C 1936.3623 4294.1879 1939.6826 4284.9707 1946.3232 4278.1348 C 1952.9638 4271.3314 1962.1322 4267.9395 1973.8184 4267.9395 C 1985.5371 4267.9395 1994.7168 4271.3314 2001.3574 4278.1348 C 2007.998 4284.9707 2011.3184 4294.1879 2011.3184 4305.7764 C 2011.3184 4317.4625 2007.972 4326.6911 2001.2988 4333.4619 C 1994.6257 4340.2653 1985.472 4343.6719 1973.8184 4343.6719 z M 2300.4199 4343.6719 C 2288.7338 4343.6719 2279.5654 4340.2653 2272.9248 4333.4619 C 2266.2842 4326.6911 2262.9639 4317.4625 2262.9639 4305.7764 C 2262.9639 4294.1879 2266.2842 4284.9707 2272.9248 4278.1348 C 2279.5654 4271.3314 2288.7338 4267.9395 2300.4199 4267.9395 C 2312.1386 4267.9395 2321.3184 4271.3314 2327.959 4278.1348 C 2334.5996 4284.9707 2337.9199 4294.1879 2337.9199 4305.7764 C 2337.9199 4317.4625 2334.5882 4326.6911 2327.915 4333.4619 C 2321.2419 4340.2653 2312.0735 4343.6719 2300.4199 4343.6719 z M 1824.0527 4343.5693 C 1818.5189 4343.5693 1813.418 4342.6904 1808.7305 4340.9326 C 1804.0755 4339.1748 1800.1693 4336.6846 1797.0117 4333.4619 C 1793.724 4330.1091 1791.2077 4326.0937 1789.4824 4321.4062 C 1787.7572 4316.7188 1786.9043 4311.4941 1786.9043 4305.7324 C 1786.9043 4299.5475 1787.7946 4294.0902 1789.585 4289.3701 C 1791.4079 4284.6501 1793.9583 4280.7064 1797.2461 4277.5488 C 1800.5338 4274.3913 1804.4662 4272.0247 1809.0234 4270.4297 C 1813.6133 4268.8346 1818.6052 4268.0273 1824.0088 4268.0273 C 1827.6546 4268.0273 1830.5241 4268.2113 1832.6074 4268.5693 C 1834.6907 4268.9274 1836.9108 4269.4531 1839.2871 4270.1367 C 1841.11 4270.6576 1842.8565 4271.2663 1844.5166 4271.9824 C 1846.1768 4272.6986 1847.9232 4273.4684 1849.7461 4274.2822 L 1849.7461 4291.6699 L 1847.7832 4291.6699 C 1846.9043 4290.8887 1845.7812 4289.9609 1844.4141 4288.8867 C 1843.0469 4287.8125 1841.5706 4286.7985 1839.9756 4285.8545 C 1838.0876 4284.6826 1836.0254 4283.7549 1833.7793 4283.0713 C 1831.5658 4282.3877 1829.3197 4282.0459 1827.041 4282.0459 C 1824.6647 4282.0459 1822.2461 4282.4251 1819.8047 4283.1738 C 1817.3633 4283.9551 1815.1546 4285.236 1813.1689 4287.0264 C 1811.2158 4288.7842 1809.5931 4291.1882 1808.291 4294.248 C 1807.0215 4297.3079 1806.3867 4301.1166 1806.3867 4305.6738 C 1806.3867 4310.0358 1806.9727 4313.7468 1808.1445 4316.8066 C 1809.349 4319.8665 1810.9115 4322.334 1812.832 4324.1895 C 1814.8503 4326.11 1817.0475 4327.4772 1819.4238 4328.291 C 1821.8001 4329.1374 1824.3018 4329.5508 1826.9385 4329.5508 C 1829.3148 4329.5508 1831.5495 4329.1976 1833.6328 4328.4814 C 1835.7161 4327.7653 1837.6432 4326.8864 1839.4336 4325.8447 C 1841.1914 4324.8031 1842.7539 4323.7402 1844.1211 4322.666 C 1845.5208 4321.5918 1846.6813 4320.6641 1847.5928 4319.8828 L 1849.7461 4319.8828 L 1849.7461 4337.5195 C 1848.4115 4338.1706 1846.849 4338.8656 1845.0586 4339.6143 C 1843.3008 4340.3955 1841.3216 4341.0905 1839.1406 4341.709 C 1837.0573 4342.2624 1834.7884 4342.7018 1832.3145 4343.0273 C 1829.8731 4343.3854 1827.1126 4343.5693 1824.0527 4343.5693 z M 1919.8096 4342.2949 C 1914.2106 4342.2949 1910.0228 4341.3558 1907.2559 4339.4678 C 1904.4889 4337.6123 1901.8522 4334.4873 1899.3457 4330.0928 C 1898.7598 4329.0511 1898.0273 4327.7213 1897.1484 4326.0937 C 1896.3021 4324.4987 1895.5469 4323.1055 1894.8633 4321.9336 C 1893.7565 4320.0456 1892.6937 4318.4603 1891.6846 4317.1582 C 1890.6755 4315.8887 1889.7363 4314.9235 1888.8574 4314.2725 C 1888.0111 4313.654 1887.0833 4313.2145 1886.0742 4312.9541 C 1885.0651 4312.7262 1883.7956 4312.5798 1882.2656 4312.5146 L 1882.2656 4342.1484 L 1863.5156 4342.1484 L 1863.5156 4269.4482 L 1882.2656 4269.4482 L 1882.2656 4298.7891 L 1886.8506 4298.7891 L 1908.3398 4269.4482 L 1931.3379 4269.4482 L 1902.8613 4306.9482 C 1903.9355 4307.5342 1905.0472 4308.5107 1906.1865 4309.8779 C 1907.3258 4311.2777 1908.7907 4313.6817 1910.5811 4317.0996 C 1912.3714 4320.5501 1913.9941 4322.9688 1915.459 4324.3359 C 1916.9564 4325.7031 1919.0446 4326.3867 1921.7139 4326.3867 L 1927.1338 4326.3867 L 1927.1338 4342.1484 C 1926.5153 4342.1484 1925.5501 4342.1745 1924.248 4342.207 C 1922.946 4342.2721 1921.4697 4342.2949 1919.8096 4342.2949 z M 2025.6152 4342.1484 L 2025.6152 4269.4482 L 2044.3652 4269.4482 L 2044.3652 4293.1348 L 2056.04 4293.1348 C 2061.346 4293.1348 2065.778 4293.8672 2069.3262 4295.332 C 2072.9069 4296.7969 2076.141 4298.9567 2079.0381 4301.8213 C 2081.154 4303.9372 2082.7767 4306.5365 2083.916 4309.6289 C 2085.0553 4312.7539 2085.6299 4315.9538 2085.6299 4319.209 C 2085.6299 4323.4082 2084.8486 4326.9955 2083.2861 4329.9902 C 2081.7562 4332.985 2079.5215 4335.4525 2076.5918 4337.373 C 2074.1504 4338.9681 2071.3444 4340.1514 2068.1543 4340.9326 C 2064.9968 4341.7464 2061.1019 4342.1484 2056.4795 4342.1484 L 2025.6152 4342.1484 z M 2098.916 4342.1484 L 2098.916 4269.4482 L 2117.666 4269.4482 L 2117.666 4328.0859 L 2145.3369 4328.0859 L 2145.3369 4269.4482 L 2164.0869 4269.4482 L 2164.0869 4342.1484 L 2098.916 4342.1484 z M 2182.6465 4342.1484 L 2182.6465 4269.4482 L 2200.5176 4269.4482 L 2230.6934 4317.832 L 2230.6934 4269.4482 L 2248.96 4269.4482 L 2248.96 4342.1484 L 2228.9795 4342.1484 L 2200.9131 4298.3496 L 2200.9131 4342.1484 L 2182.6465 4342.1484 z M 2352.2314 4342.1484 L 2352.2314 4269.4482 L 2370.9814 4269.4482 L 2370.9814 4301.4844 L 2398.667 4301.4844 L 2398.667 4269.4482 L 2417.417 4269.4482 L 2417.417 4342.1484 L 2398.667 4342.1484 L 2398.667 4315.5469 L 2370.9814 4315.5469 L 2370.9814 4342.1484 L 2352.2314 4342.1484 z M 1973.8623 4329.9463 C 1976.206 4329.9463 1978.4522 4329.5068 1980.6006 4328.6279 C 1982.7816 4327.749 1984.6973 4326.333 1986.3574 4324.3799 C 1987.985 4322.4919 1989.3034 4320.013 1990.3125 4316.9531 C 1991.3216 4313.8932 1991.8359 4310.1823 1991.8359 4305.8203 C 1991.8359 4301.7513 1991.3965 4298.2129 1990.5176 4295.1855 C 1989.6387 4292.1908 1988.2829 4289.5768 1986.46 4287.3633 C 1984.8324 4285.4102 1982.9281 4283.9714 1980.7471 4283.0273 C 1978.5661 4282.1159 1976.2712 4281.6504 1973.8623 4281.6504 C 1971.4535 4281.6504 1969.1585 4282.1159 1966.9775 4283.0273 C 1964.7966 4283.9388 1962.8922 4285.3548 1961.2646 4287.2754 C 1959.6371 4289.196 1958.3187 4291.6602 1957.3096 4294.6875 C 1956.333 4297.7474 1955.8447 4301.447 1955.8447 4305.7764 C 1955.8447 4310.0081 1956.3444 4313.7191 1957.3535 4316.9092 C 1958.3952 4320.1318 1959.7396 4322.6595 1961.3672 4324.4824 C 1963.125 4326.4355 1965.0407 4327.8255 1967.124 4328.6719 C 1969.2399 4329.5182 1971.486 4329.9463 1973.8623 4329.9463 z M 2300.4639 4329.9463 C 2302.8076 4329.9463 2305.0537 4329.5068 2307.2021 4328.6279 C 2309.3831 4327.749 2311.3135 4326.333 2312.9736 4324.3799 C 2314.6012 4322.4919 2315.9196 4320.013 2316.9287 4316.9531 C 2317.9378 4313.8932 2318.4375 4310.1823 2318.4375 4305.8203 C 2318.4375 4301.7513 2317.998 4298.2129 2317.1191 4295.1855 C 2316.2402 4292.1908 2314.8844 4289.5768 2313.0615 4287.3633 C 2311.4339 4285.4102 2309.5296 4283.9714 2307.3486 4283.0273 C 2305.1677 4282.1159 2302.8727 4281.6504 2300.4639 4281.6504 C 2298.055 4281.6504 2295.7601 4282.1159 2293.5791 4283.0273 C 2291.3981 4283.9388 2289.4938 4285.3548 2287.8662 4287.2754 C 2286.2386 4289.196 2284.9202 4291.6602 2283.9111 4294.6875 C 2282.9346 4297.7474 2282.4463 4301.447 2282.4463 4305.7764 C 2282.4463 4310.0081 2282.9606 4313.7191 2283.9697 4316.9092 C 2285.0114 4320.1318 2286.3412 4322.6595 2287.9688 4324.4824 C 2289.7266 4326.4355 2291.6423 4327.8255 2293.7256 4328.6719 C 2295.8415 4329.5182 2298.0876 4329.9463 2300.4639 4329.9463 z M 2044.3652 4328.584 L 2047.5879 4328.584 C 2050.6803 4328.584 2053.1592 4328.5352 2055.0146 4328.4375 C 2056.8701 4328.3724 2058.7744 4327.9443 2060.7275 4327.1631 C 2062.1924 4326.5772 2063.4733 4325.5404 2064.5801 4324.043 C 2065.6868 4322.5781 2066.25 4320.8203 2066.25 4318.7695 C 2066.25 4316.6862 2065.9684 4314.9023 2065.415 4313.4375 C 2064.8942 4312.0052 2064.0267 4310.7731 2062.8223 4309.7314 C 2061.4225 4308.5596 2059.6907 4307.7783 2057.6074 4307.3877 C 2055.5566 4306.9971 2052.9313 4306.8018 2049.7412 4306.8018 L 2044.3652 4306.8018 L 2044.3652 4328.584 z " />
    </g>
    <path
       d="m 3034.7709,4222.655 c -4,-40 -11,-290 -14,-556 l -6,-483 -194,338 c -215,374 -374,624 -388,609 -11,-11 140,-299 314,-601 238,-412 220,-380 191,-364 -13,6 -171,98 -353,202 -303,175 -590,325 -602,314 -12,-12 259,-185 585,-373 l 363,-209 -498,-7 c -465,-7 -639,-16 -603,-30 42,-18 289,-28 676,-28 h 429 l -95,-56 c -52,-31 -215,-126 -362,-210 -242,-140 -506,-310 -495,-320 2,-2 60,22 128,53 113,53 293,153 698,390 79,46 145,82 147,80 2,-2 -87,-161 -198,-353 -184,-319 -336,-609 -325,-621 11,-10 174,239 297,452 72,127 166,290 209,363 l 76,133 7,-493 c 7,-465 16,-643 31,-608 17,40 27,298 27,682 0,416 1,423 19,393 10,-16 105,-181 212,-365 106,-184 211,-361 233,-392 23,-31 58,-82 80,-113 21,-31 40,-54 43,-52 11,12 -152,323 -331,631 -108,187 -195,341 -193,343 2,2 71,-36 153,-83 82,-47 239,-138 349,-202 193,-111 463,-248 472,-238 12,11 -257,182 -585,372 l -362,209 483,6 c 461,6 627,13 627,29 0,16 -166,23 -628,29 l -484,6 124,71 c 499,287 609,352 712,424 65,45 115,84 113,87 -11,11 -297,-138 -607,-317 -184,-106 -341,-197 -348,-203 -7,-5 -15,-8 -17,-5 -3,2 83,157 191,344 177,304 342,620 330,631 -11,12 -186,-263 -372,-585 l -209,-363 -6,483 c -6,462 -13,628 -29,628 -4,0 -11,-33 -15,-72 z"
       id="path10" />
    <path
       style="fill:#800080;stroke:#000000;stroke-width:1.33628;stroke-linecap:round;stroke-linejoin:round"
       d="M 365.89681,729.20215 C 331.64775,725.10174 285.97768,710.10539 254.25957,692.54464 224.89301,676.28583 208.47728,664.01653 184.15436,640.14718 162.84778,619.23791 154.95466,610.2878 143.86009,594.457 116.4428,555.33538 99.792303,516.37475 90.295453,469.12075 c -3.975241,-19.77983 -5.084758,-32.57821 -5.08577,-58.66484 -0.0011,-27.61228 1.3716,-44.90059 5.010427,-63.10456 8.630488,-43.17576 25.02258,-83.29872 48.23588,-118.06705 24.0062,-35.95593 58.03226,-69.61349 93.79918,-92.78333 38.50341,-24.94255 77.99176,-40.005121 127.12567,-48.49124 15.35491,-2.65201 17.36534,-2.76404 47.11547,-2.625485 33.34097,0.155278 45.96303,1.254392 67.57905,5.884704 43.04648,9.220871 83.91539,26.981581 120.03541,52.164691 13.6305,9.50327 19.94793,14.92445 37.79963,32.43709 26.25046,25.75185 40.3288,43.4194 56.23084,70.56653 21.74788,37.1269 38.15664,86.79882 41.61508,125.97552 1.31058,14.84611 1.32211,51.17934 0.0215,67.77088 -4.7829,61.01428 -34.55833,131.01357 -75.03913,176.41009 -11.26335,12.6311 -36.45576,37.21264 -46.24728,45.12587 -33.21433,26.84288 -76.59897,48.37034 -120.20554,59.64597 -29.84751,7.71786 -34.93541,8.28248 -76.77726,8.52024 -20.95135,0.11905 -41.47666,-0.18861 -45.61179,-0.68368 z m 60.49667,-4.70716 c 15.23249,-5.56611 28.40979,-18.99276 33.31158,-33.94189 2.70475,-8.24874 2.70475,-26.55771 0,-34.80645 -4.98147,-15.19212 -19.10971,-29.32036 -34.30184,-34.30183 -8.24873,-2.70475 -26.55771,-2.70475 -34.80645,0 -14.96083,4.90562 -28.42316,18.12541 -33.92273,33.31157 -2.65261,7.32477 -3.5627,22.40546 -1.82985,30.32168 4.19642,19.17064 19.4958,35.23462 38.81197,40.75164 7.35582,2.10095 25.34191,1.36765 32.73732,-1.33472 z M 293.17702,692.66652 c 14.02584,-3.65327 28.01687,-14.86034 34.38609,-27.5439 3.53571,-7.04091 6.22026,-17.85373 6.22026,-25.05382 0,-24.00736 -17.40728,-46.55514 -40.60635,-52.59773 -7.54661,-1.96564 -20.43888,-1.96564 -27.98549,0 -14.02584,3.65327 -28.01687,14.86034 -34.38609,27.5439 -3.53571,7.04092 -6.22026,17.85373 -6.22026,25.05383 0,23.77499 17.29383,46.39444 40.17607,52.54824 7.17425,1.9294 21.10514,1.95366 28.41577,0.0495 z m 246.71258,-0.53897 c 21.97568,-3.9585 40.21354,-22.90201 43.71169,-45.40293 5.58653,-35.934 -26.02827,-67.5488 -61.96227,-61.96227 -29.45889,4.57988 -49.95847,32.19819 -45.6812,61.54455 4.45495,30.56532 33.41092,51.31842 63.93178,45.82065 z M 199.99017,597.45726 c 19.55575,-4.11335 36.03943,-19.81875 41.06947,-39.13036 1.96564,-7.54661 1.96564,-20.43889 0,-27.98549 -3.65327,-14.02584 -14.86034,-28.01687 -27.5439,-34.38609 -7.04091,-3.53571 -17.85373,-6.22026 -25.05382,-6.22026 -24.00736,0 -46.55514,17.40728 -52.59773,40.60635 -1.96564,7.5466 -1.96564,20.43888 0,27.98549 4.96698,19.06951 21.45017,34.94581 40.56824,39.07457 8.54504,1.8454 14.97711,1.86063 23.55774,0.0558 z m 448.59951,-1.4418 c 23.43241,-8.04104 39.06619,-29.32497 39.06619,-53.18499 0,-23.83956 -15.43108,-44.8772 -39.06619,-53.26006 -5.47637,-1.94235 -8.51519,-2.31108 -19.04668,-2.31108 -10.5315,0 -13.57031,0.36873 -19.04669,2.31108 -23.6351,8.38286 -39.06619,29.4205 -39.06619,53.26006 0,25.83787 17.8251,47.9496 44.07848,54.67856 8.17168,2.09448 24.81486,1.34305 33.08108,-1.49357 z M 408.42065,566.57612 c 1.50667,-10.04725 2.538,-44.34736 2.65812,-88.40413 0.0707,-25.91351 0.42181,-48.09551 0.78037,-49.29333 0.52263,-1.74595 3.72343,3.12483 16.13961,24.5602 31.55892,54.48352 41.61692,71.15287 50.4594,83.62748 8.68935,12.25856 10.74087,14.4339 10.74087,11.38909 0,-3.88975 -19.15967,-39.90228 -49.56604,-93.16436 -10.33183,-18.09801 -18.59082,-33.09981 -18.35331,-33.33732 0.39721,-0.39721 18.4925,9.79338 62.40583,35.14468 21.22721,12.25452 60.95104,32.60182 63.64823,32.60182 4.31107,0 3.04701,-1.12217 -14.0266,-12.45205 -15.90594,-10.55503 -42.82662,-26.79072 -79.19411,-47.76146 l -28.57002,-16.47446 36.58968,-0.72297 c 52.67337,-1.04076 103.31326,-2.65121 106.51105,-3.38727 3.15364,-0.72589 3.55448,-1.87772 1.00246,-2.88065 -2.70381,-1.06258 -45.94292,-2.53088 -97.80047,-3.32108 l -46.92577,-0.71505 31.38142,-18.04423 c 45.8957,-26.38991 70.35881,-41.23735 82.38923,-50.00466 10.3555,-7.5467 13.04196,-10.46517 8.40031,-9.12579 -7.69304,2.21989 -51.82036,25.99908 -98.39763,53.02421 -14.83491,8.60753 -27.15534,15.46728 -27.37874,15.24388 -0.44117,-0.44117 6.47251,-12.95221 27.76207,-50.23838 24.11402,-42.23289 40.10756,-72.96757 40.11772,-77.09394 0.005,-1.84622 -0.062,-1.84937 -2.00035,-0.0951 -4.96665,4.49475 -28.36647,42.14581 -55.63624,89.52048 -10.47568,18.19897 -19.18796,32.95322 -19.36063,32.78722 -0.17268,-0.166 -0.74294,-27.52761 -1.26727,-60.80358 -0.89529,-56.81947 -1.91698,-82.37835 -3.35026,-83.81164 -3.23362,-3.2336 -4.46176,17.33712 -5.38649,90.22136 l -0.70906,55.88448 -16.52621,-28.81814 c -27.69735,-48.29822 -49.16225,-83.29909 -57.47985,-93.72722 -1.63616,-2.05133 -3.68436,-2.31375 -3.68436,-0.47205 0,3.52898 24.50893,49.02205 55.47581,102.97328 7.43691,12.95675 13.40458,23.67594 13.26148,23.82041 -0.14311,0.14447 -17.35918,-9.50357 -38.25795,-21.4401 -57.53576,-32.86209 -88.52888,-48.93431 -90.50797,-46.93505 -2.10827,2.12976 40.46721,28.94262 101.09079,63.66421 l 23.51917,13.47038 -42.06462,0.71037 c -56.25125,0.94995 -100.3722,2.51048 -102.35522,3.62024 -5.9219,3.31405 11.69396,4.42314 80.68528,5.07991 l 64.50279,0.61405 -27.41188,15.92183 c -43.92826,25.51516 -64.48267,37.88729 -80.5421,48.48002 -21.98558,14.50157 -23.12014,16.98982 -3.86545,8.47739 13.28214,-5.87197 35.95484,-18.2389 77.42371,-42.23109 38.77245,-22.43217 37.71348,-21.86946 36.83183,-19.57188 -0.37052,0.96554 -9.25749,16.81956 -19.74881,35.23116 -32.23376,56.56809 -49.44336,89.45561 -47.71522,91.18374 1.25409,1.25409 4.18343,-2.44045 15.22437,-19.20125 11.89339,-18.05484 18.13636,-28.47281 45.22426,-75.4681 l 16.92015,-29.35507 0.70039,50.40667 c 0.68607,49.37696 2.21456,92.24201 3.35498,94.08725 1.22147,1.97638 2.25919,0.75386 2.88125,-3.39438 z M 171.89262,467.13349 c 21.36422,-4.52552 38.82494,-20.85714 44.1478,-41.29295 1.92671,-7.39714 1.90838,-20.33464 -0.0394,-27.81268 -5.29912,-20.3447 -22.74386,-36.61611 -44.1084,-41.1417 -18.95864,-4.01595 -38.02967,1.41941 -52.33721,14.91642 -11.56263,10.90759 -17.3048,24.24938 -17.3048,40.20725 0,15.71181 5.13512,27.91122 16.55869,39.33817 14.15274,14.15695 33.54613,19.924 53.08332,15.78549 z m 510.7806,-2.4399 c 23.43241,-8.04103 39.06619,-29.32497 39.06619,-53.18499 0,-23.83956 -15.43108,-44.87719 -39.06619,-53.26006 -5.47637,-1.94235 -8.51519,-2.31107 -19.04668,-2.31107 -10.5315,0 -13.57032,0.36872 -19.04669,2.31107 -23.63511,8.38287 -39.06619,29.4205 -39.06619,53.26006 0,25.83788 17.8251,47.9496 44.07848,54.67857 8.17168,2.09447 24.81486,1.34305 33.08108,-1.49358 z M 643.12045,347.44314 c 23.40885,-7.8903 38.55031,-28.59752 38.55031,-52.72078 0,-8.82935 -1.60462,-15.79376 -5.54327,-24.05897 -6.4969,-13.63372 -17.98861,-23.54454 -33.50827,-28.89861 -7.36286,-2.54009 -10.04269,-2.95486 -19.09096,-2.95486 -9.04828,0 -11.72811,0.41477 -19.09097,2.95486 -10.45627,3.60728 -18.40339,8.7444 -25.10101,16.22564 -18.54576,20.71564 -18.54576,52.74823 0,73.46388 15.76161,17.60572 40.55135,23.81979 63.78417,15.98884 z M 193.93378,336.79429 c 14.02583,-3.65328 28.01687,-14.86035 34.38609,-27.5439 3.5357,-7.04092 6.22025,-17.85373 6.22025,-25.05383 0,-24.00735 -17.40727,-46.55514 -40.60634,-52.59773 -7.54661,-1.96563 -20.43888,-1.96563 -27.98549,0 -14.02584,3.65328 -28.01687,14.86035 -34.3861,27.5439 -3.5357,7.04092 -6.22025,17.85373 -6.22025,25.05383 0,23.77499 17.29383,46.39444 40.17607,52.54824 7.17424,1.9294 21.10514,1.95366 28.41577,0.0495 z m 101.29586,-72.70188 c 11.08441,-3.39241 18.35227,-7.7592 26.58689,-15.97433 12.00714,-11.97874 17.02694,-24.20511 17.00204,-41.41066 -0.0229,-15.7912 -5.26201,-28.04315 -17.02273,-39.8083 -12.82089,-12.82571 -26.8513,-18.5224 -45.61894,-18.5224 -18.76764,0 -32.79804,5.69669 -45.61893,18.5224 -11.71224,11.71664 -17.03463,24.40488 -17.03463,40.60948 0,16.2046 5.32239,28.89284 17.03463,40.60948 9.876,9.87973 20.67892,15.47986 34.85594,18.06901 7.34026,1.34055 21.94356,0.31461 29.81573,-2.09468 z m 252.55512,-0.59784 c 23.54965,-5.95698 41.88273,-24.2056 47.24631,-47.02863 2.18275,-9.288 1.5075,-23.60981 -1.53302,-32.51508 -7.95056,-23.28611 -28.72615,-39.70898 -54.58702,-43.15041 -31.38379,-4.17641 -62.42578,14.49409 -71.8266,43.2008 -3.48425,10.63964 -3.50157,27.30102 -0.0394,37.87013 10.45666,31.92123 46.21613,50.35607 80.7397,41.62319 z M 426.55609,218.96068 c 15.30596,-4.72753 28.96946,-16.89786 35.94015,-32.01251 15.62669,-33.88361 -2.2286,-73.29403 -37.9557,-83.7763 -8.0457,-2.3606 -23.03624,-2.36267 -31.02376,-0.004 -26.16346,7.72497 -43.65929,31.05899 -43.65929,58.228 0,29.31099 21.7605,55.22537 50.07333,59.63188 7.38733,1.14974 19.17348,0.23484 26.62527,-2.06678 z"
       id="path983"
       transform="matrix(7.5,0,0,-7.5,0,6120)" />
  </g>
</svg>
